<?xml version="1.0" encoding="utf-8"?>
<svg viewBox="0 0 553 1244" xmlns="http://www.w3.org/2000/svg">
  <path d="M 349.676 55.46 Q 347.828 55.46 346.352 54.68 Q 344.876 53.9 344.036 52.508 L 345.692 51.5 Q 346.292 52.508 347.3 53.072 Q 348.308 53.636 349.628 53.636 Q 351.38 53.636 352.352 52.772 Q 353.324 51.908 353.324 50.468 Q 353.324 49.556 352.916 48.848 Q 352.508 48.14 351.74 47.744 Q 350.972 47.348 349.868 47.348 L 348.116 47.348 L 348.116 45.644 L 349.892 45.644 Q 350.756 45.644 351.392 45.272 Q 352.028 44.9 352.376 44.264 Q 352.724 43.628 352.724 42.836 Q 352.724 41.996 352.34 41.36 Q 351.956 40.724 351.248 40.364 Q 350.54 40.004 349.556 40.004 Q 348.308 40.004 347.372 40.544 Q 346.436 41.084 345.908 42.02 L 344.324 40.94 Q 345.14 39.596 346.46 38.816 Q 347.78 38.036 349.652 38.036 Q 351.212 38.036 352.364 38.588 Q 353.516 39.14 354.164 40.148 Q 354.812 41.156 354.812 42.548 Q 354.812 43.796 354.2 44.84 Q 353.588 45.884 352.388 46.412 Q 353.876 46.82 354.692 47.972 Q 355.508 49.124 355.508 50.66 Q 355.508 52.172 354.752 53.252 Q 353.996 54.332 352.688 54.896 Q 351.38 55.46 349.676 55.46 Z" style="fill: rgb(255, 255, 255); white-space: pre;"/>
  <path d="M 357.207 51.644 Q 357.207 50.444 357.891 49.568 Q 358.575 48.692 359.775 48.212 Q 360.975 47.732 362.559 47.732 Q 363.399 47.732 364.335 47.864 Q 365.271 47.996 365.991 48.26 L 365.991 47.348 Q 365.991 45.908 365.127 45.08 Q 364.263 44.252 362.679 44.252 Q 361.647 44.252 360.699 44.624 Q 359.751 44.996 358.695 45.692 L 357.927 44.204 Q 359.151 43.364 360.375 42.944 Q 361.599 42.524 362.919 42.524 Q 365.319 42.524 366.711 43.856 Q 368.103 45.188 368.103 47.564 L 368.103 52.868 Q 368.103 53.252 368.259 53.432 Q 368.415 53.612 368.775 53.636 L 368.775 55.268 Q 368.463 55.316 368.235 55.34 Q 368.007 55.364 367.863 55.364 Q 367.119 55.364 366.747 54.956 Q 366.375 54.548 366.327 54.092 L 366.279 53.3 Q 365.463 54.356 364.143 54.932 Q 362.823 55.508 361.527 55.508 Q 360.279 55.508 359.295 54.992 Q 358.311 54.476 357.759 53.6 Q 357.207 52.724 357.207 51.644 Z M 365.367 52.532 Q 365.655 52.196 365.823 51.848 Q 365.991 51.5 365.991 51.26 L 365.991 49.7 Q 365.247 49.412 364.431 49.256 Q 363.615 49.1 362.823 49.1 Q 361.215 49.1 360.219 49.736 Q 359.223 50.372 359.223 51.476 Q 359.223 52.076 359.547 52.64 Q 359.871 53.204 360.507 53.564 Q 361.143 53.924 362.079 53.924 Q 363.063 53.924 363.951 53.528 Q 364.839 53.132 365.367 52.532 Z" style="fill: rgb(255, 255, 255); white-space: pre;"/>
  <path d="M 371.459 55.268 L 371.459 42.74 L 381.851 42.74 L 381.851 55.268 L 379.739 55.268 L 379.739 44.612 L 373.571 44.612 L 373.571 55.268 Z" style="fill: rgb(255, 255, 255); white-space: pre;"/>
  <path d="M 386.824 60.524 Q 386.416 60.524 385.996 60.404 Q 385.576 60.284 385.144 60.044 L 385.864 58.604 Q 386.08 58.724 386.284 58.784 Q 386.488 58.844 386.68 58.844 Q 387.256 58.844 387.772 58.304 Q 388.288 57.764 388.744 56.66 L 389.344 55.148 L 383.848 42.74 L 386.08 42.74 L 390.304 53.132 L 394.12 42.74 L 396.208 42.74 L 390.352 57.308 Q 389.92 58.388 389.368 59.096 Q 388.816 59.804 388.168 60.164 Q 387.52 60.524 386.824 60.524 Z" style="fill: rgb(255, 255, 255); white-space: pre;"/>
  <path d="M 403.433 55.508 Q 402.017 55.508 400.853 54.992 Q 399.689 54.476 398.837 53.564 Q 397.985 52.652 397.517 51.476 Q 397.049 50.3 397.049 48.98 Q 397.049 47.204 397.841 45.74 Q 398.633 44.276 400.073 43.4 Q 401.513 42.524 403.409 42.524 Q 405.257 42.524 406.637 43.352 Q 408.017 44.18 408.689 45.572 L 406.625 46.22 Q 406.145 45.332 405.281 44.84 Q 404.417 44.348 403.361 44.348 Q 402.209 44.348 401.261 44.948 Q 400.313 45.548 399.761 46.592 Q 399.209 47.636 399.209 48.98 Q 399.209 50.3 399.773 51.368 Q 400.337 52.436 401.285 53.06 Q 402.233 53.684 403.385 53.684 Q 404.129 53.684 404.813 53.42 Q 405.497 53.156 406.013 52.712 Q 406.529 52.268 406.721 51.74 L 408.785 52.364 Q 408.401 53.276 407.621 53.984 Q 406.841 54.692 405.773 55.1 Q 404.705 55.508 403.433 55.508 Z" style="fill: rgb(255, 255, 255); white-space: pre;"/>
  <path d="M 411.157 55.268 L 411.157 42.74 L 413.269 42.74 L 413.269 47.9 L 414.661 47.9 L 418.597 42.74 L 420.997 42.74 L 416.317 48.812 L 421.549 55.268 L 419.101 55.268 L 414.661 49.844 L 413.269 49.844 L 413.269 55.268 Z" style="fill: rgb(255, 255, 255); white-space: pre;"/>
  <path d="M 430.048 55.268 L 430.048 38.228 L 432.208 38.228 L 432.208 55.268 Z" style="fill: rgb(255, 255, 255); white-space: pre;"/>
  <path d="M 448.576 40.148 L 442.696 40.148 L 442.696 55.268 L 440.536 55.268 L 440.536 40.148 L 434.656 40.148 L 434.656 38.228 L 448.576 38.228 Z" style="fill: rgb(255, 255, 255); white-space: pre;"/>
  <path d="M 450.691 55.268 L 450.691 42.74 L 452.803 42.74 L 452.803 55.268 Z M 450.691 40.388 L 450.691 37.748 L 452.803 37.748 L 452.803 40.388 Z" style="fill: rgb(255, 255, 255); white-space: pre;"/>
  <path d="M 467.074 55.268 L 464.962 55.268 L 464.962 48.26 Q 464.962 46.268 464.35 45.344 Q 463.738 44.42 462.49 44.42 Q 461.626 44.42 460.774 44.852 Q 459.922 45.284 459.262 46.016 Q 458.602 46.748 458.314 47.708 L 458.314 55.268 L 456.202 55.268 L 456.202 42.74 L 458.122 42.74 L 458.122 45.428 Q 458.626 44.54 459.418 43.892 Q 460.21 43.244 461.218 42.884 Q 462.226 42.524 463.33 42.524 Q 464.41 42.524 465.142 42.92 Q 465.874 43.316 466.294 44.024 Q 466.714 44.732 466.894 45.692 Q 467.074 46.652 467.074 47.78 Z" style="fill: rgb(255, 255, 255); white-space: pre;"/>
  <path d="M 469.552 49.028 Q 469.552 47.252 470.284 45.776 Q 471.016 44.3 472.3 43.412 Q 473.584 42.524 475.24 42.524 Q 476.752 42.524 477.952 43.316 Q 479.152 44.108 479.824 45.236 L 479.824 37.748 L 481.936 37.748 L 481.936 52.868 Q 481.936 53.252 482.092 53.432 Q 482.248 53.612 482.608 53.636 L 482.608 55.268 Q 482.008 55.364 481.672 55.364 Q 481.048 55.364 480.58 54.932 Q 480.112 54.5 480.112 53.972 L 480.112 52.916 Q 479.368 54.116 478.12 54.812 Q 476.872 55.508 475.528 55.508 Q 474.232 55.508 473.14 54.992 Q 472.048 54.476 471.244 53.564 Q 470.44 52.652 469.996 51.488 Q 469.552 50.324 469.552 49.028 Z M 479.824 50.876 L 479.824 47.276 Q 479.536 46.46 478.888 45.8 Q 478.24 45.14 477.436 44.744 Q 476.632 44.348 475.84 44.348 Q 474.904 44.348 474.148 44.744 Q 473.392 45.14 472.852 45.8 Q 472.312 46.46 472.024 47.3 Q 471.736 48.14 471.736 49.052 Q 471.736 49.988 472.06 50.828 Q 472.384 51.668 472.972 52.316 Q 473.56 52.964 474.34 53.324 Q 475.12 53.684 476.032 53.684 Q 476.608 53.684 477.22 53.468 Q 477.832 53.252 478.384 52.868 Q 478.936 52.484 479.32 51.968 Q 479.704 51.452 479.824 50.876 Z" style="fill: rgb(255, 255, 255); white-space: pre;"/>
  <path d="M 491.006 55.508 Q 489.59 55.508 488.426 54.992 Q 487.262 54.476 486.41 53.576 Q 485.558 52.676 485.09 51.5 Q 484.622 50.324 484.622 49.004 Q 484.622 47.228 485.438 45.764 Q 486.254 44.3 487.706 43.412 Q 489.158 42.524 491.03 42.524 Q 492.926 42.524 494.33 43.424 Q 495.734 44.324 496.514 45.776 Q 497.294 47.228 497.294 48.908 Q 497.294 49.148 497.282 49.376 Q 497.27 49.604 497.246 49.724 L 486.854 49.724 Q 486.95 50.948 487.538 51.896 Q 488.126 52.844 489.062 53.384 Q 489.998 53.924 491.078 53.924 Q 492.23 53.924 493.25 53.348 Q 494.27 52.772 494.654 51.836 L 496.478 52.34 Q 496.07 53.252 495.266 53.972 Q 494.462 54.692 493.37 55.1 Q 492.278 55.508 491.006 55.508 Z M 486.782 48.26 L 495.326 48.26 Q 495.23 47.036 494.63 46.1 Q 494.03 45.164 493.094 44.636 Q 492.158 44.108 491.03 44.108 Q 489.926 44.108 488.99 44.636 Q 488.054 45.164 487.466 46.1 Q 486.878 47.036 486.782 48.26 Z" style="fill: rgb(255, 255, 255); white-space: pre;"/>
  <path d="M 506.274 44.588 Q 504.69 44.612 503.478 45.392 Q 502.266 46.172 501.762 47.54 L 501.762 55.268 L 499.65 55.268 L 499.65 42.74 L 501.618 42.74 L 501.618 45.644 Q 502.266 44.348 503.334 43.544 Q 504.402 42.74 505.578 42.644 Q 505.818 42.644 505.986 42.644 Q 506.154 42.644 506.274 42.668 Z" style="fill: rgb(255, 255, 255); white-space: pre;"/>
  <path d="M 9.135 195.628 Q 9.135 194.068 9.675 192.568 Q 10.215 191.068 11.259 189.832 Q 12.303 188.596 13.815 187.864 Q 15.327 187.132 17.247 187.132 Q 19.527 187.132 21.159 188.176 Q 22.791 189.22 23.583 190.852 L 21.879 191.956 Q 21.375 190.876 20.595 190.24 Q 19.815 189.604 18.915 189.34 Q 18.015 189.076 17.151 189.076 Q 15.735 189.076 14.643 189.652 Q 13.551 190.228 12.807 191.188 Q 12.063 192.148 11.691 193.336 Q 11.319 194.524 11.319 195.724 Q 11.319 197.044 11.763 198.268 Q 12.207 199.492 12.999 200.428 Q 13.791 201.364 14.871 201.916 Q 15.951 202.468 17.223 202.468 Q 18.111 202.468 19.047 202.156 Q 19.983 201.844 20.799 201.184 Q 21.615 200.524 22.095 199.468 L 23.895 200.452 Q 23.367 201.724 22.263 202.612 Q 21.159 203.5 19.803 203.956 Q 18.447 204.412 17.127 204.412 Q 15.375 204.412 13.911 203.656 Q 12.447 202.9 11.379 201.64 Q 10.311 200.38 9.723 198.808 Q 9.135 197.236 9.135 195.628 Z" style="fill: rgb(255, 255, 255); white-space: pre;"/>
  <path d="M 29.316 204.268 L 29.316 193.612 L 24.996 193.612 L 24.996 191.74 L 35.748 191.74 L 35.748 193.612 L 31.428 193.612 L 31.428 204.268 Z" style="fill: rgb(255, 255, 255); white-space: pre;"/>
  <path d="M 37.837 204.268 L 37.837 191.74 L 44.317 191.74 Q 45.445 191.74 46.189 192.184 Q 46.933 192.628 47.305 193.324 Q 47.677 194.02 47.677 194.812 Q 47.677 195.82 47.197 196.624 Q 46.717 197.428 45.805 197.836 Q 46.885 198.148 47.557 198.952 Q 48.229 199.756 48.229 200.932 Q 48.229 201.988 47.725 202.732 Q 47.221 203.476 46.309 203.872 Q 45.397 204.268 44.197 204.268 Z M 39.853 202.78 L 44.149 202.78 Q 44.725 202.78 45.193 202.492 Q 45.661 202.204 45.925 201.724 Q 46.189 201.244 46.189 200.716 Q 46.189 200.14 45.937 199.672 Q 45.685 199.204 45.241 198.928 Q 44.797 198.652 44.221 198.652 L 39.853 198.652 Z M 39.853 197.26 L 43.765 197.26 Q 44.341 197.26 44.773 196.96 Q 45.205 196.66 45.445 196.18 Q 45.685 195.7 45.685 195.172 Q 45.685 194.38 45.169 193.804 Q 44.653 193.228 43.837 193.228 L 39.853 193.228 Z" style="fill: rgb(255, 255, 255); white-space: pre;"/>
  <path d="M 56.385 204.508 Q 54.969 204.508 53.817 203.992 Q 52.665 203.476 51.825 202.576 Q 50.985 201.676 50.529 200.5 Q 50.073 199.324 50.073 198.028 Q 50.073 196.708 50.529 195.532 Q 50.985 194.356 51.825 193.456 Q 52.665 192.556 53.829 192.04 Q 54.993 191.524 56.409 191.524 Q 57.801 191.524 58.953 192.04 Q 60.105 192.556 60.957 193.456 Q 61.809 194.356 62.265 195.532 Q 62.721 196.708 62.721 198.028 Q 62.721 199.324 62.265 200.5 Q 61.809 201.676 60.969 202.576 Q 60.129 203.476 58.965 203.992 Q 57.801 204.508 56.385 204.508 Z M 52.233 198.052 Q 52.233 199.348 52.797 200.404 Q 53.361 201.46 54.297 202.072 Q 55.233 202.684 56.385 202.684 Q 57.537 202.684 58.485 202.06 Q 59.433 201.436 59.997 200.368 Q 60.561 199.3 60.561 198.004 Q 60.561 196.708 59.997 195.652 Q 59.433 194.596 58.485 193.972 Q 57.537 193.348 56.385 193.348 Q 55.233 193.348 54.297 193.984 Q 53.361 194.62 52.797 195.676 Q 52.233 196.732 52.233 198.052 Z" style="fill: rgb(255, 255, 255); white-space: pre;"/>
  <path d="M 72.032 204.508 Q 70.496 204.508 69.296 203.74 Q 68.096 202.972 67.4 201.796 L 67.4 209.38 L 65.288 209.38 L 65.288 191.74 L 67.16 191.74 L 67.16 194.092 Q 67.904 192.94 69.104 192.232 Q 70.304 191.524 71.72 191.524 Q 73.016 191.524 74.096 192.052 Q 75.176 192.58 75.968 193.492 Q 76.76 194.404 77.204 195.568 Q 77.648 196.732 77.648 198.004 Q 77.648 199.78 76.94 201.268 Q 76.232 202.756 74.96 203.632 Q 73.688 204.508 72.032 204.508 Z M 71.384 202.684 Q 72.32 202.684 73.076 202.288 Q 73.832 201.892 74.372 201.232 Q 74.912 200.572 75.2 199.732 Q 75.488 198.892 75.488 198.004 Q 75.488 197.068 75.164 196.228 Q 74.84 195.388 74.252 194.74 Q 73.664 194.092 72.884 193.72 Q 72.104 193.348 71.192 193.348 Q 70.616 193.348 70.004 193.564 Q 69.392 193.78 68.84 194.176 Q 68.288 194.572 67.904 195.076 Q 67.52 195.58 67.4 196.156 L 67.4 199.732 Q 67.76 200.548 68.36 201.22 Q 68.96 201.892 69.752 202.288 Q 70.544 202.684 71.384 202.684 Z" style="fill: rgb(255, 255, 255); white-space: pre;"/>
  <path d="M 85.791 204.508 Q 84.375 204.508 83.211 203.992 Q 82.047 203.476 81.195 202.576 Q 80.343 201.676 79.875 200.5 Q 79.407 199.324 79.407 198.004 Q 79.407 196.228 80.223 194.764 Q 81.039 193.3 82.491 192.412 Q 83.943 191.524 85.815 191.524 Q 87.711 191.524 89.115 192.424 Q 90.519 193.324 91.299 194.776 Q 92.079 196.228 92.079 197.908 Q 92.079 198.148 92.067 198.376 Q 92.055 198.604 92.031 198.724 L 81.639 198.724 Q 81.735 199.948 82.323 200.896 Q 82.911 201.844 83.847 202.384 Q 84.783 202.924 85.863 202.924 Q 87.015 202.924 88.035 202.348 Q 89.055 201.772 89.439 200.836 L 91.263 201.34 Q 90.855 202.252 90.051 202.972 Q 89.247 203.692 88.155 204.1 Q 87.063 204.508 85.791 204.508 Z M 81.567 197.26 L 90.111 197.26 Q 90.015 196.036 89.415 195.1 Q 88.815 194.164 87.879 193.636 Q 86.943 193.108 85.815 193.108 Q 84.711 193.108 83.775 193.636 Q 82.839 194.164 82.251 195.1 Q 81.663 196.036 81.567 197.26 Z" style="fill: rgb(255, 255, 255); white-space: pre;"/>
  <path d="M 94.4 204.268 L 94.4 191.74 L 96.512 191.74 L 96.512 196.924 L 103.04 196.924 L 103.04 191.74 L 105.152 191.74 L 105.152 204.268 L 103.04 204.268 L 103.04 198.796 L 96.512 198.796 L 96.512 204.268 Z" style="fill: rgb(255, 255, 255); white-space: pre;"/>
  <path d="M 108.535 204.268 L 108.535 191.74 L 110.647 191.74 L 110.647 196.924 L 117.175 196.924 L 117.175 191.74 L 119.287 191.74 L 119.287 204.268 L 117.175 204.268 L 117.175 198.796 L 110.647 198.796 L 110.647 204.268 Z" style="fill: rgb(255, 255, 255); white-space: pre;"/>
  <path d="M 121.759 204.268 L 125.311 199.228 Q 124.087 198.988 123.343 198.064 Q 122.599 197.14 122.599 195.58 Q 122.599 194.452 123.127 193.588 Q 123.655 192.724 124.603 192.22 Q 125.551 191.716 126.823 191.716 L 131.959 191.716 L 131.959 204.268 L 129.847 204.268 L 129.847 199.564 L 127.399 199.564 L 124.087 204.268 Z M 126.967 198.004 L 129.847 198.004 L 129.847 193.372 L 127.207 193.372 Q 126.079 193.372 125.407 194.008 Q 124.735 194.644 124.735 195.628 Q 124.735 196.612 125.299 197.308 Q 125.863 198.004 126.967 198.004 Z" style="fill: rgb(255, 255, 255); white-space: pre;"/>
  <path d="M 141.781 204.268 L 141.781 187.228 L 143.941 187.228 L 143.941 204.268 Z" style="fill: rgb(255, 255, 255); white-space: pre;"/>
  <path d="M 160.308 189.148 L 154.428 189.148 L 154.428 204.268 L 152.268 204.268 L 152.268 189.148 L 146.388 189.148 L 146.388 187.228 L 160.308 187.228 Z" style="fill: rgb(255, 255, 255); white-space: pre;"/>
  <path d="M 167.22 204.508 Q 165.684 204.508 164.484 203.74 Q 163.284 202.972 162.588 201.796 L 162.588 209.38 L 160.476 209.38 L 160.476 191.74 L 162.348 191.74 L 162.348 194.092 Q 163.092 192.94 164.292 192.232 Q 165.492 191.524 166.908 191.524 Q 168.204 191.524 169.284 192.052 Q 170.364 192.58 171.156 193.492 Q 171.948 194.404 172.392 195.568 Q 172.836 196.732 172.836 198.004 Q 172.836 199.78 172.128 201.268 Q 171.42 202.756 170.148 203.632 Q 168.876 204.508 167.22 204.508 Z M 166.572 202.684 Q 167.508 202.684 168.264 202.288 Q 169.02 201.892 169.56 201.232 Q 170.1 200.572 170.388 199.732 Q 170.676 198.892 170.676 198.004 Q 170.676 197.068 170.352 196.228 Q 170.028 195.388 169.44 194.74 Q 168.852 194.092 168.072 193.72 Q 167.292 193.348 166.38 193.348 Q 165.804 193.348 165.192 193.564 Q 164.58 193.78 164.028 194.176 Q 163.476 194.572 163.092 195.076 Q 162.708 195.58 162.588 196.156 L 162.588 199.732 Q 162.948 200.548 163.548 201.22 Q 164.148 201.892 164.94 202.288 Q 165.732 202.684 166.572 202.684 Z" style="fill: rgb(255, 255, 255); white-space: pre;"/>
  <path d="M 174.44 200.644 Q 174.44 199.444 175.124 198.568 Q 175.808 197.692 177.008 197.212 Q 178.208 196.732 179.792 196.732 Q 180.632 196.732 181.568 196.864 Q 182.504 196.996 183.224 197.26 L 183.224 196.348 Q 183.224 194.908 182.36 194.08 Q 181.496 193.252 179.912 193.252 Q 178.88 193.252 177.932 193.624 Q 176.984 193.996 175.928 194.692 L 175.16 193.204 Q 176.384 192.364 177.608 191.944 Q 178.832 191.524 180.152 191.524 Q 182.552 191.524 183.944 192.856 Q 185.336 194.188 185.336 196.564 L 185.336 201.868 Q 185.336 202.252 185.492 202.432 Q 185.648 202.612 186.008 202.636 L 186.008 204.268 Q 185.696 204.316 185.468 204.34 Q 185.24 204.364 185.096 204.364 Q 184.352 204.364 183.98 203.956 Q 183.608 203.548 183.56 203.092 L 183.512 202.3 Q 182.696 203.356 181.376 203.932 Q 180.056 204.508 178.76 204.508 Q 177.512 204.508 176.528 203.992 Q 175.544 203.476 174.992 202.6 Q 174.44 201.724 174.44 200.644 Z M 182.6 201.532 Q 182.888 201.196 183.056 200.848 Q 183.224 200.5 183.224 200.26 L 183.224 198.7 Q 182.48 198.412 181.664 198.256 Q 180.848 198.1 180.056 198.1 Q 178.448 198.1 177.452 198.736 Q 176.456 199.372 176.456 200.476 Q 176.456 201.076 176.78 201.64 Q 177.104 202.204 177.74 202.564 Q 178.376 202.924 179.312 202.924 Q 180.296 202.924 181.184 202.528 Q 182.072 202.132 182.6 201.532 Z" style="fill: rgb(255, 255, 255); white-space: pre;"/>
  <path d="M 195.35 193.588 Q 193.766 193.612 192.554 194.392 Q 191.342 195.172 190.838 196.54 L 190.838 204.268 L 188.726 204.268 L 188.726 191.74 L 190.694 191.74 L 190.694 194.644 Q 191.342 193.348 192.41 192.544 Q 193.478 191.74 194.654 191.644 Q 194.894 191.644 195.062 191.644 Q 195.23 191.644 195.35 191.668 Z" style="fill: rgb(255, 255, 255); white-space: pre;"/>
  <path d="M 203.914 203.644 Q 203.65 203.764 203.194 203.956 Q 202.738 204.148 202.138 204.292 Q 201.538 204.436 200.866 204.436 Q 200.098 204.436 199.45 204.16 Q 198.802 203.884 198.418 203.296 Q 198.034 202.708 198.034 201.82 L 198.034 193.396 L 196.33 193.396 L 196.33 191.74 L 198.034 191.74 L 198.034 187.564 L 200.146 187.564 L 200.146 191.74 L 202.954 191.74 L 202.954 193.396 L 200.146 193.396 L 200.146 201.172 Q 200.194 201.844 200.602 202.168 Q 201.01 202.492 201.562 202.492 Q 202.186 202.492 202.714 202.276 Q 203.242 202.06 203.41 201.964 Z" style="fill: rgb(255, 255, 255); white-space: pre;"/>
  <path d="M 216.754 204.268 L 214.642 204.268 L 214.642 197.26 Q 214.642 195.268 214.03 194.344 Q 213.418 193.42 212.17 193.42 Q 211.306 193.42 210.454 193.852 Q 209.602 194.284 208.942 195.016 Q 208.282 195.748 207.994 196.708 L 207.994 204.268 L 205.882 204.268 L 205.882 191.74 L 207.802 191.74 L 207.802 194.428 Q 208.306 193.54 209.098 192.892 Q 209.89 192.244 210.898 191.884 Q 211.906 191.524 213.01 191.524 Q 214.09 191.524 214.822 191.92 Q 215.554 192.316 215.974 193.024 Q 216.394 193.732 216.574 194.692 Q 216.754 195.652 216.754 196.78 Z" style="fill: rgb(255, 255, 255); white-space: pre;"/>
  <path d="M 225.582 204.508 Q 224.166 204.508 223.002 203.992 Q 221.838 203.476 220.986 202.576 Q 220.134 201.676 219.666 200.5 Q 219.198 199.324 219.198 198.004 Q 219.198 196.228 220.014 194.764 Q 220.83 193.3 222.282 192.412 Q 223.734 191.524 225.606 191.524 Q 227.502 191.524 228.906 192.424 Q 230.31 193.324 231.09 194.776 Q 231.87 196.228 231.87 197.908 Q 231.87 198.148 231.858 198.376 Q 231.846 198.604 231.822 198.724 L 221.43 198.724 Q 221.526 199.948 222.114 200.896 Q 222.702 201.844 223.638 202.384 Q 224.574 202.924 225.654 202.924 Q 226.806 202.924 227.826 202.348 Q 228.846 201.772 229.23 200.836 L 231.054 201.34 Q 230.646 202.252 229.842 202.972 Q 229.038 203.692 227.946 204.1 Q 226.854 204.508 225.582 204.508 Z M 221.358 197.26 L 229.902 197.26 Q 229.806 196.036 229.206 195.1 Q 228.606 194.164 227.67 193.636 Q 226.734 193.108 225.606 193.108 Q 224.502 193.108 223.566 193.636 Q 222.63 194.164 222.042 195.1 Q 221.454 196.036 221.358 197.26 Z" style="fill: rgb(255, 255, 255); white-space: pre;"/>
  <path d="M 240.85 193.588 Q 239.266 193.612 238.054 194.392 Q 236.842 195.172 236.338 196.54 L 236.338 204.268 L 234.226 204.268 L 234.226 191.74 L 236.194 191.74 L 236.194 194.644 Q 236.842 193.348 237.91 192.544 Q 238.978 191.74 240.154 191.644 Q 240.394 191.644 240.562 191.644 Q 240.73 191.644 240.85 191.668 Z" style="fill: rgb(255, 255, 255); white-space: pre;"/>
  <path d="M 247.23 204.508 Q 245.67 204.508 244.302 203.992 Q 242.934 203.476 241.95 202.444 L 242.766 200.956 Q 243.846 201.964 244.926 202.396 Q 246.006 202.828 247.134 202.828 Q 248.43 202.828 249.246 202.336 Q 250.062 201.844 250.062 200.884 Q 250.062 200.188 249.642 199.852 Q 249.222 199.516 248.454 199.288 Q 247.686 199.06 246.63 198.772 Q 245.334 198.388 244.446 197.956 Q 243.558 197.524 243.102 196.876 Q 242.646 196.228 242.646 195.244 Q 242.646 194.044 243.27 193.216 Q 243.894 192.388 244.986 191.956 Q 246.078 191.524 247.47 191.524 Q 248.862 191.524 249.99 191.956 Q 251.118 192.388 251.934 193.228 L 250.974 194.692 Q 250.23 193.924 249.342 193.552 Q 248.454 193.18 247.35 193.18 Q 246.702 193.18 246.078 193.336 Q 245.454 193.492 245.046 193.888 Q 244.638 194.284 244.638 195.004 Q 244.638 195.604 244.962 195.952 Q 245.286 196.3 245.922 196.54 Q 246.558 196.78 247.47 197.068 Q 248.886 197.476 249.93 197.884 Q 250.974 198.292 251.55 198.94 Q 252.126 199.588 252.126 200.74 Q 252.126 202.516 250.782 203.512 Q 249.438 204.508 247.23 204.508 Z" style="fill: rgb(255, 255, 255); white-space: pre;"/>
  <path d="M 370.614 378.316 L 370.614 374.26 L 362.91 374.26 L 362.91 372.388 L 371.286 361.564 L 372.726 361.564 L 372.726 372.34 L 374.838 372.34 L 374.838 374.26 L 372.726 374.26 L 372.726 378.316 Z M 365.094 372.34 L 370.83 372.34 L 370.83 364.828 Z" style="fill: rgb(255, 255, 255); white-space: pre;"/>
  <path d="M 389.159 368.236 Q 389.159 370.348 388.367 371.992 Q 387.575 373.636 386.207 374.572 Q 384.839 375.508 383.087 375.508 Q 381.335 375.508 379.967 374.572 Q 378.599 373.636 377.807 371.992 Q 377.015 370.348 377.015 368.236 Q 377.015 366.124 377.807 364.48 Q 378.599 362.836 379.967 361.888 Q 381.335 360.94 383.087 360.94 Q 384.839 360.94 386.207 361.888 Q 387.575 362.836 388.367 364.48 Q 389.159 366.124 389.159 368.236 Z M 387.023 368.236 Q 387.023 366.652 386.519 365.452 Q 386.015 364.252 385.127 363.58 Q 384.239 362.908 383.087 362.908 Q 381.911 362.908 381.023 363.58 Q 380.135 364.252 379.631 365.452 Q 379.127 366.652 379.127 368.236 Q 379.127 369.82 379.631 371.008 Q 380.135 372.196 381.023 372.868 Q 381.911 373.54 383.087 373.54 Q 384.239 373.54 385.127 372.868 Q 386.015 372.196 386.519 371.008 Q 387.023 369.82 387.023 368.236 Z" style="fill: rgb(255, 255, 255); white-space: pre;"/>
  <path d="M 403.899 368.236 Q 403.899 370.348 403.107 371.992 Q 402.315 373.636 400.947 374.572 Q 399.579 375.508 397.827 375.508 Q 396.075 375.508 394.707 374.572 Q 393.339 373.636 392.547 371.992 Q 391.755 370.348 391.755 368.236 Q 391.755 366.124 392.547 364.48 Q 393.339 362.836 394.707 361.888 Q 396.075 360.94 397.827 360.94 Q 399.579 360.94 400.947 361.888 Q 402.315 362.836 403.107 364.48 Q 403.899 366.124 403.899 368.236 Z M 401.763 368.236 Q 401.763 366.652 401.259 365.452 Q 400.755 364.252 399.867 363.58 Q 398.979 362.908 397.827 362.908 Q 396.651 362.908 395.763 363.58 Q 394.875 364.252 394.371 365.452 Q 393.867 366.652 393.867 368.236 Q 393.867 369.82 394.371 371.008 Q 394.875 372.196 395.763 372.868 Q 396.651 373.54 397.827 373.54 Q 398.979 373.54 399.867 372.868 Q 400.755 372.196 401.259 371.008 Q 401.763 369.82 401.763 368.236 Z" style="fill: rgb(255, 255, 255); white-space: pre;"/>
  <path d="M 418.628 368.236 Q 418.628 370.348 417.836 371.992 Q 417.044 373.636 415.676 374.572 Q 414.308 375.508 412.556 375.508 Q 410.804 375.508 409.436 374.572 Q 408.068 373.636 407.276 371.992 Q 406.484 370.348 406.484 368.236 Q 406.484 366.124 407.276 364.48 Q 408.068 362.836 409.436 361.888 Q 410.804 360.94 412.556 360.94 Q 414.308 360.94 415.676 361.888 Q 417.044 362.836 417.836 364.48 Q 418.628 366.124 418.628 368.236 Z M 416.492 368.236 Q 416.492 366.652 415.988 365.452 Q 415.484 364.252 414.596 363.58 Q 413.708 362.908 412.556 362.908 Q 411.38 362.908 410.492 363.58 Q 409.604 364.252 409.1 365.452 Q 408.596 366.652 408.596 368.236 Q 408.596 369.82 409.1 371.008 Q 409.604 372.196 410.492 372.868 Q 411.38 373.54 412.556 373.54 Q 413.708 373.54 414.596 372.868 Q 415.484 372.196 415.988 371.008 Q 416.492 369.82 416.492 368.236 Z" style="fill: rgb(255, 255, 255); white-space: pre;"/>
  <path d="M 438.049 375.508 Q 436.393 375.508 435.121 374.788 Q 433.849 374.068 433.081 372.808 Q 432.313 371.548 432.145 369.94 L 429.817 369.94 L 429.817 375.268 L 427.705 375.268 L 427.705 362.74 L 429.817 362.74 L 429.817 368.092 L 432.145 368.092 Q 432.337 366.436 433.117 365.176 Q 433.897 363.916 435.169 363.22 Q 436.441 362.524 438.049 362.524 Q 439.945 362.524 441.313 363.4 Q 442.681 364.276 443.425 365.74 Q 444.169 367.204 444.169 369.028 Q 444.169 370.9 443.413 372.364 Q 442.657 373.828 441.277 374.668 Q 439.897 375.508 438.049 375.508 Z M 438.049 373.684 Q 439.225 373.684 440.113 373.084 Q 441.001 372.484 441.505 371.44 Q 442.009 370.396 442.009 369.028 Q 442.009 367.588 441.493 366.544 Q 440.977 365.5 440.077 364.924 Q 439.177 364.348 438.049 364.348 Q 436.921 364.348 436.045 364.936 Q 435.169 365.524 434.689 366.58 Q 434.209 367.636 434.209 369.028 Q 434.209 370.444 434.701 371.5 Q 435.193 372.556 436.069 373.12 Q 436.945 373.684 438.049 373.684 Z" style="fill: rgb(255, 255, 255); white-space: pre;"/>
  <path d="M 450.648 375.436 Q 448.824 375.436 447.564 374.752 Q 446.304 374.068 445.632 372.844 L 447.36 372.076 Q 447.792 372.844 448.596 373.276 Q 449.4 373.708 450.552 373.708 Q 451.92 373.708 452.712 373.108 Q 453.504 372.508 453.504 371.5 Q 453.504 370.588 452.868 370.024 Q 452.232 369.46 451.08 369.436 L 449.808 369.436 L 449.808 368.044 L 451.152 368.044 Q 451.656 368.044 452.052 367.792 Q 452.448 367.54 452.676 367.108 Q 452.904 366.676 452.904 366.148 Q 452.904 365.308 452.304 364.792 Q 451.704 364.276 450.504 364.276 Q 449.52 364.276 448.86 364.66 Q 448.2 365.044 447.792 365.812 L 446.184 364.948 Q 446.784 363.82 447.924 363.184 Q 449.064 362.548 450.6 362.548 Q 451.824 362.548 452.772 362.944 Q 453.72 363.34 454.26 364.084 Q 454.8 364.828 454.8 365.884 Q 454.8 366.772 454.38 367.528 Q 453.96 368.284 453.144 368.668 Q 454.272 369.004 454.872 369.832 Q 455.472 370.66 455.472 371.788 Q 455.472 372.94 454.848 373.756 Q 454.224 374.572 453.144 375.004 Q 452.064 375.436 450.648 375.436 Z" style="fill: rgb(255, 255, 255); white-space: pre;"/>
  <path d="M 463.561 375.508 Q 462.145 375.508 460.981 374.992 Q 459.817 374.476 458.965 373.576 Q 458.113 372.676 457.645 371.5 Q 457.177 370.324 457.177 369.004 Q 457.177 367.228 457.993 365.764 Q 458.809 364.3 460.261 363.412 Q 461.713 362.524 463.585 362.524 Q 465.481 362.524 466.885 363.424 Q 468.289 364.324 469.069 365.776 Q 469.849 367.228 469.849 368.908 Q 469.849 369.148 469.837 369.376 Q 469.825 369.604 469.801 369.724 L 459.409 369.724 Q 459.505 370.948 460.093 371.896 Q 460.681 372.844 461.617 373.384 Q 462.553 373.924 463.633 373.924 Q 464.785 373.924 465.805 373.348 Q 466.825 372.772 467.209 371.836 L 469.033 372.34 Q 468.625 373.252 467.821 373.972 Q 467.017 374.692 465.925 375.1 Q 464.833 375.508 463.561 375.508 Z M 459.337 368.26 L 467.881 368.26 Q 467.785 367.036 467.185 366.1 Q 466.585 365.164 465.649 364.636 Q 464.713 364.108 463.585 364.108 Q 462.481 364.108 461.545 364.636 Q 460.609 365.164 460.021 366.1 Q 459.433 367.036 459.337 368.26 Z" style="fill: rgb(255, 255, 255); white-space: pre;"/>
  <path d="M 478.949 375.508 Q 477.413 375.508 476.213 374.74 Q 475.013 373.972 474.317 372.796 L 474.317 380.38 L 472.205 380.38 L 472.205 362.74 L 474.077 362.74 L 474.077 365.092 Q 474.821 363.94 476.021 363.232 Q 477.221 362.524 478.637 362.524 Q 479.933 362.524 481.013 363.052 Q 482.093 363.58 482.885 364.492 Q 483.677 365.404 484.121 366.568 Q 484.565 367.732 484.565 369.004 Q 484.565 370.78 483.857 372.268 Q 483.149 373.756 481.877 374.632 Q 480.605 375.508 478.949 375.508 Z M 478.301 373.684 Q 479.237 373.684 479.993 373.288 Q 480.749 372.892 481.289 372.232 Q 481.829 371.572 482.117 370.732 Q 482.405 369.892 482.405 369.004 Q 482.405 368.068 482.081 367.228 Q 481.757 366.388 481.169 365.74 Q 480.581 365.092 479.801 364.72 Q 479.021 364.348 478.109 364.348 Q 477.533 364.348 476.921 364.564 Q 476.309 364.78 475.757 365.176 Q 475.205 365.572 474.821 366.076 Q 474.437 366.58 474.317 367.156 L 474.317 370.732 Q 474.677 371.548 475.277 372.22 Q 475.877 372.892 476.669 373.288 Q 477.461 373.684 478.301 373.684 Z" style="fill: rgb(255, 255, 255); white-space: pre;"/>
  <path d="M 487.153 375.268 L 487.153 362.74 L 489.265 362.74 L 489.265 375.268 Z M 487.153 360.388 L 487.153 357.748 L 489.265 357.748 L 489.265 360.388 Z" style="fill: rgb(255, 255, 255); white-space: pre;"/>
  <path d="M 492.649 375.268 L 492.649 362.74 L 499.129 362.74 Q 500.257 362.74 501.001 363.184 Q 501.745 363.628 502.117 364.324 Q 502.489 365.02 502.489 365.812 Q 502.489 366.82 502.009 367.624 Q 501.529 368.428 500.617 368.836 Q 501.697 369.148 502.369 369.952 Q 503.041 370.756 503.041 371.932 Q 503.041 372.988 502.537 373.732 Q 502.033 374.476 501.121 374.872 Q 500.209 375.268 499.009 375.268 Z M 494.665 373.78 L 498.961 373.78 Q 499.537 373.78 500.005 373.492 Q 500.473 373.204 500.737 372.724 Q 501.001 372.244 501.001 371.716 Q 501.001 371.14 500.749 370.672 Q 500.497 370.204 500.053 369.928 Q 499.609 369.652 499.033 369.652 L 494.665 369.652 Z M 494.665 368.26 L 498.577 368.26 Q 499.153 368.26 499.585 367.96 Q 500.017 367.66 500.257 367.18 Q 500.497 366.7 500.497 366.172 Q 500.497 365.38 499.981 364.804 Q 499.465 364.228 498.649 364.228 L 494.665 364.228 Z" style="fill: rgb(255, 255, 255); white-space: pre;"/>
  <path d="M 100.391 535.756 Q 98.567 535.756 97.103 534.892 Q 95.639 534.028 94.895 532.588 L 96.215 531.436 Q 96.887 532.54 98.003 533.212 Q 99.119 533.884 100.415 533.884 Q 101.519 533.884 102.383 533.404 Q 103.247 532.924 103.751 532.072 Q 104.255 531.22 104.255 530.116 Q 104.255 529.036 103.763 528.22 Q 103.271 527.404 102.443 526.948 Q 101.615 526.492 100.583 526.492 Q 99.551 526.492 98.651 526.948 Q 97.751 527.404 97.175 528.244 L 95.279 528.244 L 97.199 518.476 L 105.479 518.476 L 105.479 520.42 L 98.759 520.42 L 97.727 525.844 Q 98.255 525.292 99.059 524.968 Q 99.863 524.644 100.847 524.644 Q 102.431 524.644 103.691 525.34 Q 104.951 526.036 105.683 527.26 Q 106.415 528.484 106.415 530.092 Q 106.415 531.772 105.611 533.056 Q 104.807 534.34 103.439 535.048 Q 102.071 535.756 100.391 535.756 Z" style="fill: rgb(255, 255, 255); white-space: pre;"/>
  <path d="M 120.689 525.148 Q 120.689 527.26 119.897 528.904 Q 119.105 530.548 117.737 531.484 Q 116.369 532.42 114.617 532.42 Q 112.865 532.42 111.497 531.484 Q 110.129 530.548 109.337 528.904 Q 108.545 527.26 108.545 525.148 Q 108.545 523.036 109.337 521.392 Q 110.129 519.748 111.497 518.8 Q 112.865 517.852 114.617 517.852 Q 116.369 517.852 117.737 518.8 Q 119.105 519.748 119.897 521.392 Q 120.689 523.036 120.689 525.148 Z M 118.553 525.148 Q 118.553 523.564 118.049 522.364 Q 117.545 521.164 116.657 520.492 Q 115.769 519.82 114.617 519.82 Q 113.441 519.82 112.553 520.492 Q 111.665 521.164 111.161 522.364 Q 110.657 523.564 110.657 525.148 Q 110.657 526.732 111.161 527.92 Q 111.665 529.108 112.553 529.78 Q 113.441 530.452 114.617 530.452 Q 115.769 530.452 116.657 529.78 Q 117.545 529.108 118.049 527.92 Q 118.553 526.732 118.553 525.148 Z" style="fill: rgb(255, 255, 255); white-space: pre;"/>
  <path d="M 135.428 525.148 Q 135.428 527.26 134.636 528.904 Q 133.844 530.548 132.476 531.484 Q 131.108 532.42 129.356 532.42 Q 127.604 532.42 126.236 531.484 Q 124.868 530.548 124.076 528.904 Q 123.284 527.26 123.284 525.148 Q 123.284 523.036 124.076 521.392 Q 124.868 519.748 126.236 518.8 Q 127.604 517.852 129.356 517.852 Q 131.108 517.852 132.476 518.8 Q 133.844 519.748 134.636 521.392 Q 135.428 523.036 135.428 525.148 Z M 133.292 525.148 Q 133.292 523.564 132.788 522.364 Q 132.284 521.164 131.396 520.492 Q 130.508 519.82 129.356 519.82 Q 128.18 519.82 127.292 520.492 Q 126.404 521.164 125.9 522.364 Q 125.396 523.564 125.396 525.148 Q 125.396 526.732 125.9 527.92 Q 126.404 529.108 127.292 529.78 Q 128.18 530.452 129.356 530.452 Q 130.508 530.452 131.396 529.78 Q 132.284 529.108 132.788 527.92 Q 133.292 526.732 133.292 525.148 Z" style="fill: rgb(255, 255, 255); white-space: pre;"/>
  <path d="M 150.158 525.148 Q 150.158 527.26 149.366 528.904 Q 148.574 530.548 147.206 531.484 Q 145.838 532.42 144.086 532.42 Q 142.334 532.42 140.966 531.484 Q 139.598 530.548 138.806 528.904 Q 138.014 527.26 138.014 525.148 Q 138.014 523.036 138.806 521.392 Q 139.598 519.748 140.966 518.8 Q 142.334 517.852 144.086 517.852 Q 145.838 517.852 147.206 518.8 Q 148.574 519.748 149.366 521.392 Q 150.158 523.036 150.158 525.148 Z M 148.022 525.148 Q 148.022 523.564 147.518 522.364 Q 147.014 521.164 146.126 520.492 Q 145.238 519.82 144.086 519.82 Q 142.91 519.82 142.022 520.492 Q 141.134 521.164 140.63 522.364 Q 140.126 523.564 140.126 525.148 Q 140.126 526.732 140.63 527.92 Q 141.134 529.108 142.022 529.78 Q 142.91 530.452 144.086 530.452 Q 145.238 530.452 146.126 529.78 Q 147.014 529.108 147.518 527.92 Q 148.022 526.732 148.022 525.148 Z" style="fill: rgb(255, 255, 255); white-space: pre;"/>
  <path d="M 169.578 532.42 Q 167.922 532.42 166.65 531.7 Q 165.378 530.98 164.61 529.72 Q 163.842 528.46 163.674 526.852 L 161.346 526.852 L 161.346 532.18 L 159.234 532.18 L 159.234 519.652 L 161.346 519.652 L 161.346 525.004 L 163.674 525.004 Q 163.866 523.348 164.646 522.088 Q 165.426 520.828 166.698 520.132 Q 167.97 519.436 169.578 519.436 Q 171.474 519.436 172.842 520.312 Q 174.21 521.188 174.954 522.652 Q 175.698 524.116 175.698 525.94 Q 175.698 527.812 174.942 529.276 Q 174.186 530.74 172.806 531.58 Q 171.426 532.42 169.578 532.42 Z M 169.578 530.596 Q 170.754 530.596 171.642 529.996 Q 172.53 529.396 173.034 528.352 Q 173.538 527.308 173.538 525.94 Q 173.538 524.5 173.022 523.456 Q 172.506 522.412 171.606 521.836 Q 170.706 521.26 169.578 521.26 Q 168.45 521.26 167.574 521.848 Q 166.698 522.436 166.218 523.492 Q 165.738 524.548 165.738 525.94 Q 165.738 527.356 166.23 528.412 Q 166.722 529.468 167.598 530.032 Q 168.474 530.596 169.578 530.596 Z" style="fill: rgb(255, 255, 255); white-space: pre;"/>
  <path d="M 182.177 532.348 Q 180.353 532.348 179.093 531.664 Q 177.833 530.98 177.161 529.756 L 178.889 528.988 Q 179.321 529.756 180.125 530.188 Q 180.929 530.62 182.081 530.62 Q 183.449 530.62 184.241 530.02 Q 185.033 529.42 185.033 528.412 Q 185.033 527.5 184.397 526.936 Q 183.761 526.372 182.609 526.348 L 181.337 526.348 L 181.337 524.956 L 182.681 524.956 Q 183.185 524.956 183.581 524.704 Q 183.977 524.452 184.205 524.02 Q 184.433 523.588 184.433 523.06 Q 184.433 522.22 183.833 521.704 Q 183.233 521.188 182.033 521.188 Q 181.049 521.188 180.389 521.572 Q 179.729 521.956 179.321 522.724 L 177.713 521.86 Q 178.313 520.732 179.453 520.096 Q 180.593 519.46 182.129 519.46 Q 183.353 519.46 184.301 519.856 Q 185.249 520.252 185.789 520.996 Q 186.329 521.74 186.329 522.796 Q 186.329 523.684 185.909 524.44 Q 185.489 525.196 184.673 525.58 Q 185.801 525.916 186.401 526.744 Q 187.001 527.572 187.001 528.7 Q 187.001 529.852 186.377 530.668 Q 185.753 531.484 184.673 531.916 Q 183.593 532.348 182.177 532.348 Z" style="fill: rgb(255, 255, 255); white-space: pre;"/>
  <path d="M 195.091 532.42 Q 193.675 532.42 192.511 531.904 Q 191.347 531.388 190.495 530.488 Q 189.643 529.588 189.175 528.412 Q 188.707 527.236 188.707 525.916 Q 188.707 524.14 189.523 522.676 Q 190.339 521.212 191.791 520.324 Q 193.243 519.436 195.115 519.436 Q 197.011 519.436 198.415 520.336 Q 199.819 521.236 200.599 522.688 Q 201.379 524.14 201.379 525.82 Q 201.379 526.06 201.367 526.288 Q 201.355 526.516 201.331 526.636 L 190.939 526.636 Q 191.035 527.86 191.623 528.808 Q 192.211 529.756 193.147 530.296 Q 194.083 530.836 195.163 530.836 Q 196.315 530.836 197.335 530.26 Q 198.355 529.684 198.739 528.748 L 200.563 529.252 Q 200.155 530.164 199.351 530.884 Q 198.547 531.604 197.455 532.012 Q 196.363 532.42 195.091 532.42 Z M 190.867 525.172 L 199.411 525.172 Q 199.315 523.948 198.715 523.012 Q 198.115 522.076 197.179 521.548 Q 196.243 521.02 195.115 521.02 Q 194.011 521.02 193.075 521.548 Q 192.139 522.076 191.551 523.012 Q 190.963 523.948 190.867 525.172 Z" style="fill: rgb(255, 255, 255); white-space: pre;"/>
  <path d="M 210.478 532.42 Q 208.942 532.42 207.742 531.652 Q 206.542 530.884 205.846 529.708 L 205.846 537.292 L 203.734 537.292 L 203.734 519.652 L 205.606 519.652 L 205.606 522.004 Q 206.35 520.852 207.55 520.144 Q 208.75 519.436 210.166 519.436 Q 211.462 519.436 212.542 519.964 Q 213.622 520.492 214.414 521.404 Q 215.206 522.316 215.65 523.48 Q 216.094 524.644 216.094 525.916 Q 216.094 527.692 215.386 529.18 Q 214.678 530.668 213.406 531.544 Q 212.134 532.42 210.478 532.42 Z M 209.83 530.596 Q 210.766 530.596 211.522 530.2 Q 212.278 529.804 212.818 529.144 Q 213.358 528.484 213.646 527.644 Q 213.934 526.804 213.934 525.916 Q 213.934 524.98 213.61 524.14 Q 213.286 523.3 212.698 522.652 Q 212.11 522.004 211.33 521.632 Q 210.55 521.26 209.638 521.26 Q 209.062 521.26 208.45 521.476 Q 207.838 521.692 207.286 522.088 Q 206.734 522.484 206.35 522.988 Q 205.966 523.492 205.846 524.068 L 205.846 527.644 Q 206.206 528.46 206.806 529.132 Q 207.406 529.804 208.198 530.2 Q 208.99 530.596 209.83 530.596 Z" style="fill: rgb(255, 255, 255); white-space: pre;"/>
  <path d="M 218.682 532.18 L 218.682 519.652 L 220.794 519.652 L 220.794 532.18 Z M 218.682 517.3 L 218.682 514.66 L 220.794 514.66 L 220.794 517.3 Z" style="fill: rgb(255, 255, 255); white-space: pre;"/>
  <path d="M 224.179 532.18 L 224.179 519.652 L 230.659 519.652 Q 231.787 519.652 232.531 520.096 Q 233.275 520.54 233.647 521.236 Q 234.019 521.932 234.019 522.724 Q 234.019 523.732 233.539 524.536 Q 233.059 525.34 232.147 525.748 Q 233.227 526.06 233.899 526.864 Q 234.571 527.668 234.571 528.844 Q 234.571 529.9 234.067 530.644 Q 233.563 531.388 232.651 531.784 Q 231.739 532.18 230.539 532.18 Z M 226.195 530.692 L 230.491 530.692 Q 231.067 530.692 231.535 530.404 Q 232.003 530.116 232.267 529.636 Q 232.531 529.156 232.531 528.628 Q 232.531 528.052 232.279 527.584 Q 232.027 527.116 231.583 526.84 Q 231.139 526.564 230.563 526.564 L 226.195 526.564 Z M 226.195 525.172 L 230.107 525.172 Q 230.683 525.172 231.115 524.872 Q 231.547 524.572 231.787 524.092 Q 232.027 523.612 232.027 523.084 Q 232.027 522.292 231.511 521.716 Q 230.995 521.14 230.179 521.14 L 226.195 521.14 Z" style="fill: rgb(255, 255, 255); white-space: pre;"/>
  <path d="M 362.319 659.46 Q 360.471 659.46 358.995 658.68 Q 357.519 657.9 356.679 656.508 L 358.335 655.5 Q 358.935 656.508 359.943 657.072 Q 360.951 657.636 362.271 657.636 Q 364.023 657.636 364.995 656.772 Q 365.967 655.908 365.967 654.468 Q 365.967 653.556 365.559 652.848 Q 365.151 652.14 364.383 651.744 Q 363.615 651.348 362.511 651.348 L 360.759 651.348 L 360.759 649.644 L 362.535 649.644 Q 363.399 649.644 364.035 649.272 Q 364.671 648.9 365.019 648.264 Q 365.367 647.628 365.367 646.836 Q 365.367 645.996 364.983 645.36 Q 364.599 644.724 363.891 644.364 Q 363.183 644.004 362.199 644.004 Q 360.951 644.004 360.015 644.544 Q 359.079 645.084 358.551 646.02 L 356.967 644.94 Q 357.783 643.596 359.103 642.816 Q 360.423 642.036 362.295 642.036 Q 363.855 642.036 365.007 642.588 Q 366.159 643.14 366.807 644.148 Q 367.455 645.156 367.455 646.548 Q 367.455 647.796 366.843 648.84 Q 366.231 649.884 365.031 650.412 Q 366.519 650.82 367.335 651.972 Q 368.151 653.124 368.151 654.66 Q 368.151 656.172 367.395 657.252 Q 366.639 658.332 365.331 658.896 Q 364.023 659.46 362.319 659.46 Z" style="fill: rgb(255, 255, 255); white-space: pre;"/>
  <path d="M 369.85 655.644 Q 369.85 654.444 370.534 653.568 Q 371.218 652.692 372.418 652.212 Q 373.618 651.732 375.202 651.732 Q 376.042 651.732 376.978 651.864 Q 377.914 651.996 378.634 652.26 L 378.634 651.348 Q 378.634 649.908 377.77 649.08 Q 376.906 648.252 375.322 648.252 Q 374.29 648.252 373.342 648.624 Q 372.394 648.996 371.338 649.692 L 370.57 648.204 Q 371.794 647.364 373.018 646.944 Q 374.242 646.524 375.562 646.524 Q 377.962 646.524 379.354 647.856 Q 380.746 649.188 380.746 651.564 L 380.746 656.868 Q 380.746 657.252 380.902 657.432 Q 381.058 657.612 381.418 657.636 L 381.418 659.268 Q 381.106 659.316 380.878 659.34 Q 380.65 659.364 380.506 659.364 Q 379.762 659.364 379.39 658.956 Q 379.018 658.548 378.97 658.092 L 378.922 657.3 Q 378.106 658.356 376.786 658.932 Q 375.466 659.508 374.17 659.508 Q 372.922 659.508 371.938 658.992 Q 370.954 658.476 370.402 657.6 Q 369.85 656.724 369.85 655.644 Z M 378.01 656.532 Q 378.298 656.196 378.466 655.848 Q 378.634 655.5 378.634 655.26 L 378.634 653.7 Q 377.89 653.412 377.074 653.256 Q 376.258 653.1 375.466 653.1 Q 373.858 653.1 372.862 653.736 Q 371.866 654.372 371.866 655.476 Q 371.866 656.076 372.19 656.64 Q 372.514 657.204 373.15 657.564 Q 373.786 657.924 374.722 657.924 Q 375.706 657.924 376.594 657.528 Q 377.482 657.132 378.01 656.532 Z" style="fill: rgb(255, 255, 255); white-space: pre;"/>
  <path d="M 384.102 659.268 L 384.102 646.74 L 394.494 646.74 L 394.494 659.268 L 392.382 659.268 L 392.382 648.612 L 386.214 648.612 L 386.214 659.268 Z" style="fill: rgb(255, 255, 255); white-space: pre;"/>
  <path d="M 399.467 664.524 Q 399.059 664.524 398.639 664.404 Q 398.219 664.284 397.787 664.044 L 398.507 662.604 Q 398.723 662.724 398.927 662.784 Q 399.131 662.844 399.323 662.844 Q 399.899 662.844 400.415 662.304 Q 400.931 661.764 401.387 660.66 L 401.987 659.148 L 396.491 646.74 L 398.723 646.74 L 402.947 657.132 L 406.763 646.74 L 408.851 646.74 L 402.995 661.308 Q 402.563 662.388 402.011 663.096 Q 401.459 663.804 400.811 664.164 Q 400.163 664.524 399.467 664.524 Z" style="fill: rgb(255, 255, 255); white-space: pre;"/>
  <path d="M 416.076 659.508 Q 414.66 659.508 413.496 658.992 Q 412.332 658.476 411.48 657.564 Q 410.628 656.652 410.16 655.476 Q 409.692 654.3 409.692 652.98 Q 409.692 651.204 410.484 649.74 Q 411.276 648.276 412.716 647.4 Q 414.156 646.524 416.052 646.524 Q 417.9 646.524 419.28 647.352 Q 420.66 648.18 421.332 649.572 L 419.268 650.22 Q 418.788 649.332 417.924 648.84 Q 417.06 648.348 416.004 648.348 Q 414.852 648.348 413.904 648.948 Q 412.956 649.548 412.404 650.592 Q 411.852 651.636 411.852 652.98 Q 411.852 654.3 412.416 655.368 Q 412.98 656.436 413.928 657.06 Q 414.876 657.684 416.028 657.684 Q 416.772 657.684 417.456 657.42 Q 418.14 657.156 418.656 656.712 Q 419.172 656.268 419.364 655.74 L 421.428 656.364 Q 421.044 657.276 420.264 657.984 Q 419.484 658.692 418.416 659.1 Q 417.348 659.508 416.076 659.508 Z" style="fill: rgb(255, 255, 255); white-space: pre;"/>
  <path d="M 423.8 659.268 L 423.8 646.74 L 425.912 646.74 L 425.912 651.9 L 427.304 651.9 L 431.24 646.74 L 433.64 646.74 L 428.96 652.812 L 434.192 659.268 L 431.744 659.268 L 427.304 653.844 L 425.912 653.844 L 425.912 659.268 Z" style="fill: rgb(255, 255, 255); white-space: pre;"/>
  <path d="M 442.691 659.268 L 442.691 642.228 L 444.851 642.228 L 444.851 659.268 Z" style="fill: rgb(255, 255, 255); white-space: pre;"/>
  <path d="M 461.219 644.148 L 455.339 644.148 L 455.339 659.268 L 453.179 659.268 L 453.179 644.148 L 447.299 644.148 L 447.299 642.228 L 461.219 642.228 Z" style="fill: rgb(255, 255, 255); white-space: pre;"/>
  <path d="M 480.274 659.268 L 478.162 659.268 L 478.162 652.26 Q 478.162 650.292 477.526 649.356 Q 476.89 648.42 475.642 648.42 Q 474.37 648.42 473.338 649.344 Q 472.306 650.268 471.874 651.732 L 471.874 659.268 L 469.762 659.268 L 469.762 652.26 Q 469.762 650.268 469.138 649.344 Q 468.514 648.42 467.266 648.42 Q 466.018 648.42 464.974 649.32 Q 463.93 650.22 463.498 651.708 L 463.498 659.268 L 461.386 659.268 L 461.386 646.74 L 463.306 646.74 L 463.306 649.428 Q 464.074 648.036 465.298 647.28 Q 466.522 646.524 468.058 646.524 Q 469.618 646.524 470.554 647.376 Q 471.49 648.228 471.706 649.572 Q 472.546 648.084 473.746 647.304 Q 474.946 646.524 476.482 646.524 Q 477.562 646.524 478.294 646.92 Q 479.026 647.316 479.458 648.024 Q 479.89 648.732 480.082 649.692 Q 480.274 650.652 480.274 651.78 Z" style="fill: rgb(255, 255, 255); white-space: pre;"/>
  <path d="M 489.107 659.508 Q 487.691 659.508 486.527 658.992 Q 485.363 658.476 484.511 657.576 Q 483.659 656.676 483.191 655.5 Q 482.723 654.324 482.723 653.004 Q 482.723 651.228 483.539 649.764 Q 484.355 648.3 485.807 647.412 Q 487.259 646.524 489.131 646.524 Q 491.027 646.524 492.431 647.424 Q 493.835 648.324 494.615 649.776 Q 495.395 651.228 495.395 652.908 Q 495.395 653.148 495.383 653.376 Q 495.371 653.604 495.347 653.724 L 484.955 653.724 Q 485.051 654.948 485.639 655.896 Q 486.227 656.844 487.163 657.384 Q 488.099 657.924 489.179 657.924 Q 490.331 657.924 491.351 657.348 Q 492.371 656.772 492.755 655.836 L 494.579 656.34 Q 494.171 657.252 493.367 657.972 Q 492.563 658.692 491.471 659.1 Q 490.379 659.508 489.107 659.508 Z M 484.883 652.26 L 493.427 652.26 Q 493.331 651.036 492.731 650.1 Q 492.131 649.164 491.195 648.636 Q 490.259 648.108 489.131 648.108 Q 488.027 648.108 487.091 648.636 Q 486.155 649.164 485.567 650.1 Q 484.979 651.036 484.883 652.26 Z" style="fill: rgb(255, 255, 255); white-space: pre;"/>
  <path d="M 508.623 659.268 L 506.511 659.268 L 506.511 652.26 Q 506.511 650.268 505.899 649.344 Q 505.287 648.42 504.039 648.42 Q 503.175 648.42 502.323 648.852 Q 501.471 649.284 500.811 650.016 Q 500.151 650.748 499.863 651.708 L 499.863 659.268 L 497.751 659.268 L 497.751 646.74 L 499.671 646.74 L 499.671 649.428 Q 500.175 648.54 500.967 647.892 Q 501.759 647.244 502.767 646.884 Q 503.775 646.524 504.879 646.524 Q 505.959 646.524 506.691 646.92 Q 507.423 647.316 507.843 648.024 Q 508.263 648.732 508.443 649.692 Q 508.623 650.652 508.623 651.78 Z" style="fill: rgb(255, 255, 255); white-space: pre;"/>
  <path d="M 518.262 658.644 Q 517.998 658.764 517.542 658.956 Q 517.086 659.148 516.486 659.292 Q 515.886 659.436 515.214 659.436 Q 514.446 659.436 513.798 659.16 Q 513.15 658.884 512.766 658.296 Q 512.382 657.708 512.382 656.82 L 512.382 648.396 L 510.678 648.396 L 510.678 646.74 L 512.382 646.74 L 512.382 642.564 L 514.494 642.564 L 514.494 646.74 L 517.302 646.74 L 517.302 648.396 L 514.494 648.396 L 514.494 656.172 Q 514.542 656.844 514.95 657.168 Q 515.358 657.492 515.91 657.492 Q 516.534 657.492 517.062 657.276 Q 517.59 657.06 517.758 656.964 Z" style="fill: rgb(255, 255, 255); white-space: pre;"/>
  <path d="M 525.535 659.508 Q 524.119 659.508 522.967 658.992 Q 521.815 658.476 520.975 657.576 Q 520.135 656.676 519.679 655.5 Q 519.223 654.324 519.223 653.028 Q 519.223 651.708 519.679 650.532 Q 520.135 649.356 520.975 648.456 Q 521.815 647.556 522.979 647.04 Q 524.143 646.524 525.559 646.524 Q 526.951 646.524 528.103 647.04 Q 529.255 647.556 530.107 648.456 Q 530.959 649.356 531.415 650.532 Q 531.871 651.708 531.871 653.028 Q 531.871 654.324 531.415 655.5 Q 530.959 656.676 530.119 657.576 Q 529.279 658.476 528.115 658.992 Q 526.951 659.508 525.535 659.508 Z M 521.383 653.052 Q 521.383 654.348 521.947 655.404 Q 522.511 656.46 523.447 657.072 Q 524.383 657.684 525.535 657.684 Q 526.687 657.684 527.635 657.06 Q 528.583 656.436 529.147 655.368 Q 529.711 654.3 529.711 653.004 Q 529.711 651.708 529.147 650.652 Q 528.583 649.596 527.635 648.972 Q 526.687 648.348 525.535 648.348 Q 524.383 648.348 523.447 648.984 Q 522.511 649.62 521.947 650.676 Q 521.383 651.732 521.383 653.052 Z" style="fill: rgb(255, 255, 255); white-space: pre;"/>
  <path d="M 541.062 648.588 Q 539.478 648.612 538.266 649.392 Q 537.054 650.172 536.55 651.54 L 536.55 659.268 L 534.438 659.268 L 534.438 646.74 L 536.406 646.74 L 536.406 649.644 Q 537.054 648.348 538.122 647.544 Q 539.19 646.74 540.366 646.644 Q 540.606 646.644 540.774 646.644 Q 540.942 646.644 541.062 646.668 Z" style="fill: rgb(255, 255, 255); white-space: pre;"/>
  <path d="M 90.307 805.853 Q 88.459 805.853 86.983 805.073 Q 85.507 804.293 84.667 802.901 L 86.323 801.893 Q 86.923 802.901 87.931 803.465 Q 88.939 804.029 90.259 804.029 Q 92.011 804.029 92.983 803.165 Q 93.955 802.301 93.955 800.861 Q 93.955 799.949 93.547 799.241 Q 93.139 798.533 92.371 798.137 Q 91.603 797.741 90.499 797.741 L 88.747 797.741 L 88.747 796.037 L 90.523 796.037 Q 91.387 796.037 92.023 795.665 Q 92.659 795.293 93.007 794.657 Q 93.355 794.021 93.355 793.229 Q 93.355 792.389 92.971 791.753 Q 92.587 791.117 91.879 790.757 Q 91.171 790.397 90.187 790.397 Q 88.939 790.397 88.003 790.937 Q 87.067 791.477 86.539 792.413 L 84.955 791.333 Q 85.771 789.989 87.091 789.209 Q 88.411 788.429 90.283 788.429 Q 91.843 788.429 92.995 788.981 Q 94.147 789.533 94.795 790.541 Q 95.443 791.549 95.443 792.941 Q 95.443 794.189 94.831 795.233 Q 94.219 796.277 93.019 796.805 Q 94.507 797.213 95.323 798.365 Q 96.139 799.517 96.139 801.053 Q 96.139 802.565 95.383 803.645 Q 94.627 804.725 93.319 805.289 Q 92.011 805.853 90.307 805.853 Z" style="fill: rgb(255, 255, 255); white-space: pre;"/>
  <path d="M 97.838 802.037 Q 97.838 800.837 98.522 799.961 Q 99.206 799.085 100.406 798.605 Q 101.606 798.125 103.19 798.125 Q 104.03 798.125 104.966 798.257 Q 105.902 798.389 106.622 798.653 L 106.622 797.741 Q 106.622 796.301 105.758 795.473 Q 104.894 794.645 103.31 794.645 Q 102.278 794.645 101.33 795.017 Q 100.382 795.389 99.326 796.085 L 98.558 794.597 Q 99.782 793.757 101.006 793.337 Q 102.23 792.917 103.55 792.917 Q 105.95 792.917 107.342 794.249 Q 108.734 795.581 108.734 797.957 L 108.734 803.261 Q 108.734 803.645 108.89 803.825 Q 109.046 804.005 109.406 804.029 L 109.406 805.661 Q 109.094 805.709 108.866 805.733 Q 108.638 805.757 108.494 805.757 Q 107.75 805.757 107.378 805.349 Q 107.006 804.941 106.958 804.485 L 106.91 803.693 Q 106.094 804.749 104.774 805.325 Q 103.454 805.901 102.158 805.901 Q 100.91 805.901 99.926 805.385 Q 98.942 804.869 98.39 803.993 Q 97.838 803.117 97.838 802.037 Z M 105.998 802.925 Q 106.286 802.589 106.454 802.241 Q 106.622 801.893 106.622 801.653 L 106.622 800.093 Q 105.878 799.805 105.062 799.649 Q 104.246 799.493 103.454 799.493 Q 101.846 799.493 100.85 800.129 Q 99.854 800.765 99.854 801.869 Q 99.854 802.469 100.178 803.033 Q 100.502 803.597 101.138 803.957 Q 101.774 804.317 102.71 804.317 Q 103.694 804.317 104.582 803.921 Q 105.47 803.525 105.998 802.925 Z" style="fill: rgb(255, 255, 255); white-space: pre;"/>
  <path d="M 112.09 805.661 L 112.09 793.133 L 122.482 793.133 L 122.482 805.661 L 120.37 805.661 L 120.37 795.005 L 114.202 795.005 L 114.202 805.661 Z" style="fill: rgb(255, 255, 255); white-space: pre;"/>
  <path d="M 127.455 810.917 Q 127.047 810.917 126.627 810.797 Q 126.207 810.677 125.775 810.437 L 126.495 808.997 Q 126.711 809.117 126.915 809.177 Q 127.119 809.237 127.311 809.237 Q 127.887 809.237 128.403 808.697 Q 128.919 808.157 129.375 807.053 L 129.975 805.541 L 124.479 793.133 L 126.711 793.133 L 130.935 803.525 L 134.751 793.133 L 136.839 793.133 L 130.983 807.701 Q 130.551 808.781 129.999 809.489 Q 129.447 810.197 128.799 810.557 Q 128.151 810.917 127.455 810.917 Z" style="fill: rgb(255, 255, 255); white-space: pre;"/>
  <path d="M 144.064 805.901 Q 142.648 805.901 141.484 805.385 Q 140.32 804.869 139.468 803.957 Q 138.616 803.045 138.148 801.869 Q 137.68 800.693 137.68 799.373 Q 137.68 797.597 138.472 796.133 Q 139.264 794.669 140.704 793.793 Q 142.144 792.917 144.04 792.917 Q 145.888 792.917 147.268 793.745 Q 148.648 794.573 149.32 795.965 L 147.256 796.613 Q 146.776 795.725 145.912 795.233 Q 145.048 794.741 143.992 794.741 Q 142.84 794.741 141.892 795.341 Q 140.944 795.941 140.392 796.985 Q 139.84 798.029 139.84 799.373 Q 139.84 800.693 140.404 801.761 Q 140.968 802.829 141.916 803.453 Q 142.864 804.077 144.016 804.077 Q 144.76 804.077 145.444 803.813 Q 146.128 803.549 146.644 803.105 Q 147.16 802.661 147.352 802.133 L 149.416 802.757 Q 149.032 803.669 148.252 804.377 Q 147.472 805.085 146.404 805.493 Q 145.336 805.901 144.064 805.901 Z" style="fill: rgb(255, 255, 255); white-space: pre;"/>
  <path d="M 151.788 805.661 L 151.788 793.133 L 153.9 793.133 L 153.9 798.293 L 155.292 798.293 L 159.228 793.133 L 161.628 793.133 L 156.948 799.205 L 162.18 805.661 L 159.732 805.661 L 155.292 800.237 L 153.9 800.237 L 153.9 805.661 Z" style="fill: rgb(255, 255, 255); white-space: pre;"/>
  <path d="M 170.679 805.661 L 170.679 788.621 L 172.839 788.621 L 172.839 805.661 Z" style="fill: rgb(255, 255, 255); white-space: pre;"/>
  <path d="M 189.207 790.541 L 183.327 790.541 L 183.327 805.661 L 181.167 805.661 L 181.167 790.541 L 175.287 790.541 L 175.287 788.621 L 189.207 788.621 Z" style="fill: rgb(255, 255, 255); white-space: pre;"/>
  <path d="M 194.2 805.901 Q 192.784 805.901 191.62 805.385 Q 190.456 804.869 189.604 803.969 Q 188.752 803.069 188.284 801.893 Q 187.816 800.717 187.816 799.397 Q 187.816 797.621 188.632 796.157 Q 189.448 794.693 190.9 793.805 Q 192.352 792.917 194.224 792.917 Q 196.12 792.917 197.524 793.817 Q 198.928 794.717 199.708 796.169 Q 200.488 797.621 200.488 799.301 Q 200.488 799.541 200.476 799.769 Q 200.464 799.997 200.44 800.117 L 190.048 800.117 Q 190.144 801.341 190.732 802.289 Q 191.32 803.237 192.256 803.777 Q 193.192 804.317 194.272 804.317 Q 195.424 804.317 196.444 803.741 Q 197.464 803.165 197.848 802.229 L 199.672 802.733 Q 199.264 803.645 198.46 804.365 Q 197.656 805.085 196.564 805.493 Q 195.472 805.901 194.2 805.901 Z M 189.976 798.653 L 198.52 798.653 Q 198.424 797.429 197.824 796.493 Q 197.224 795.557 196.288 795.029 Q 195.352 794.501 194.224 794.501 Q 193.12 794.501 192.184 795.029 Q 191.248 795.557 190.66 796.493 Q 190.072 797.429 189.976 798.653 Z" style="fill: rgb(255, 255, 255); white-space: pre;"/>
  <path d="M 201.849 802.037 Q 201.849 800.837 202.533 799.961 Q 203.217 799.085 204.417 798.605 Q 205.617 798.125 207.201 798.125 Q 208.041 798.125 208.977 798.257 Q 209.913 798.389 210.633 798.653 L 210.633 797.741 Q 210.633 796.301 209.769 795.473 Q 208.905 794.645 207.321 794.645 Q 206.289 794.645 205.341 795.017 Q 204.393 795.389 203.337 796.085 L 202.569 794.597 Q 203.793 793.757 205.017 793.337 Q 206.241 792.917 207.561 792.917 Q 209.961 792.917 211.353 794.249 Q 212.745 795.581 212.745 797.957 L 212.745 803.261 Q 212.745 803.645 212.901 803.825 Q 213.057 804.005 213.417 804.029 L 213.417 805.661 Q 213.105 805.709 212.877 805.733 Q 212.649 805.757 212.505 805.757 Q 211.761 805.757 211.389 805.349 Q 211.017 804.941 210.969 804.485 L 210.921 803.693 Q 210.105 804.749 208.785 805.325 Q 207.465 805.901 206.169 805.901 Q 204.921 805.901 203.937 805.385 Q 202.953 804.869 202.401 803.993 Q 201.849 803.117 201.849 802.037 Z M 210.009 802.925 Q 210.297 802.589 210.465 802.241 Q 210.633 801.893 210.633 801.653 L 210.633 800.093 Q 209.889 799.805 209.073 799.649 Q 208.257 799.493 207.465 799.493 Q 205.857 799.493 204.861 800.129 Q 203.865 800.765 203.865 801.869 Q 203.865 802.469 204.189 803.033 Q 204.513 803.597 205.149 803.957 Q 205.785 804.317 206.721 804.317 Q 207.705 804.317 208.593 803.921 Q 209.481 803.525 210.009 802.925 Z" style="fill: rgb(255, 255, 255); white-space: pre;"/>
  <path d="M 221.679 805.901 Q 220.263 805.901 219.099 805.385 Q 217.935 804.869 217.083 803.957 Q 216.231 803.045 215.763 801.869 Q 215.295 800.693 215.295 799.373 Q 215.295 797.597 216.087 796.133 Q 216.879 794.669 218.319 793.793 Q 219.759 792.917 221.655 792.917 Q 223.503 792.917 224.883 793.745 Q 226.263 794.573 226.935 795.965 L 224.871 796.613 Q 224.391 795.725 223.527 795.233 Q 222.663 794.741 221.607 794.741 Q 220.455 794.741 219.507 795.341 Q 218.559 795.941 218.007 796.985 Q 217.455 798.029 217.455 799.373 Q 217.455 800.693 218.019 801.761 Q 218.583 802.829 219.531 803.453 Q 220.479 804.077 221.631 804.077 Q 222.375 804.077 223.059 803.813 Q 223.743 803.549 224.259 803.105 Q 224.775 802.661 224.967 802.133 L 227.031 802.757 Q 226.647 803.669 225.867 804.377 Q 225.087 805.085 224.019 805.493 Q 222.951 805.901 221.679 805.901 Z" style="fill: rgb(255, 255, 255); white-space: pre;"/>
  <path d="M 240.298 805.661 L 238.186 805.661 L 238.186 798.653 Q 238.186 796.733 237.502 795.773 Q 236.818 794.813 235.546 794.813 Q 234.73 794.813 233.902 795.245 Q 233.074 795.677 232.45 796.409 Q 231.826 797.141 231.538 798.101 L 231.538 805.661 L 229.426 805.661 L 229.426 788.141 L 231.538 788.141 L 231.538 795.821 Q 232.282 794.477 233.566 793.697 Q 234.85 792.917 236.338 792.917 Q 237.466 792.917 238.222 793.313 Q 238.978 793.709 239.434 794.429 Q 239.89 795.149 240.094 796.097 Q 240.298 797.045 240.298 798.173 Z" style="fill: rgb(255, 255, 255); white-space: pre;"/>
  <rect x="294.447" y="2.442" width="9.951" height="475.877" style="fill: rgb(85, 255, 151); paint-order: fill;"/>
  <rect x="294.434" y="585.458" width="10" height="652.231" style="paint-order: fill; fill: rgb(255, 234, 0);"/>
  <ellipse style="fill: rgb(85, 255, 151);" cx="299.134" cy="46.726" rx="21.926" ry="21.926"/>
  <ellipse style="fill: rgb(85, 255, 151);" cx="299.134" cy="195.626" rx="21.926" ry="21.926"/>
  <ellipse style="fill: rgb(85, 255, 151);" cx="299.134" cy="367.326" rx="21.926" ry="21.926"/>
  <ellipse style="fill: rgb(85, 255, 151);" cx="299.134" cy="521.026" rx="21.926" ry="21.926"/>
  <ellipse style="fill: rgb(255, 234, 0);" cx="299.134" cy="651.126" rx="21.926" ry="21.926"/>
  <ellipse style="fill: rgb(255, 234, 0);" cx="299.134" cy="797.826" rx="21.926" ry="21.926"/>
  <ellipse style="fill: rgb(255, 234, 0);" cx="299.134" cy="955.026" rx="21.926" ry="21.926"/>
  <ellipse style="fill: rgb(255, 234, 0);" cx="299.134" cy="1116.226" rx="21.926" ry="21.926"/>
  <path d="M 90.384 60.597 L 90.384 47.351 Q 89.537 47.708 88.377 48.109 Q 87.217 48.51 85.723 48.756 Q 84.229 49.001 82.445 49.001 Q 77.182 49.001 74.64 46.66 Q 72.098 44.318 72.098 39.189 L 72.098 28.931 L 75.978 28.931 L 75.978 38.743 Q 75.978 42.177 77.651 43.761 Q 79.323 45.344 83.114 45.344 Q 85.077 45.344 87.106 44.898 Q 89.135 44.452 90.384 43.783 L 90.384 28.931 L 94.309 28.931 L 94.309 60.597 Z" style="fill: rgb(255, 255, 255); white-space: pre;"/>
  <path d="M 111.564 61.043 Q 108.933 61.043 106.77 60.084 Q 104.606 59.125 103.023 57.453 Q 101.44 55.78 100.57 53.595 Q 99.7 51.409 99.7 48.956 Q 99.7 45.656 101.217 42.935 Q 102.733 40.215 105.432 38.565 Q 108.13 36.914 111.609 36.914 Q 115.132 36.914 117.741 38.587 Q 120.35 40.259 121.8 42.958 Q 123.249 45.656 123.249 48.778 Q 123.249 49.224 123.227 49.648 Q 123.205 50.071 123.16 50.294 L 103.848 50.294 Q 104.027 52.569 105.119 54.331 Q 106.212 56.092 107.951 57.096 Q 109.691 58.099 111.698 58.099 Q 113.839 58.099 115.734 57.029 Q 117.63 55.959 118.343 54.219 L 121.733 55.156 Q 120.975 56.851 119.481 58.189 Q 117.986 59.527 115.957 60.285 Q 113.928 61.043 111.564 61.043 Z M 103.714 47.574 L 119.592 47.574 Q 119.414 45.299 118.299 43.56 Q 117.184 41.82 115.444 40.839 Q 113.705 39.858 111.609 39.858 Q 109.557 39.858 107.818 40.839 Q 106.078 41.82 104.986 43.56 Q 103.893 45.299 103.714 47.574 Z" style="fill: rgb(255, 255, 255); white-space: pre;"/>
  <path d="M 140.148 61.043 Q 137.294 61.043 135.064 59.616 Q 132.834 58.189 131.54 56.003 L 131.54 70.097 L 127.616 70.097 L 127.616 37.316 L 131.094 37.316 L 131.094 41.687 Q 132.477 39.546 134.707 38.23 Q 136.937 36.914 139.568 36.914 Q 141.977 36.914 143.984 37.896 Q 145.991 38.877 147.463 40.572 Q 148.934 42.266 149.759 44.43 Q 150.585 46.593 150.585 48.956 Q 150.585 52.257 149.269 55.022 Q 147.953 57.787 145.589 59.415 Q 143.226 61.043 140.148 61.043 Z M 138.944 57.653 Q 140.683 57.653 142.088 56.918 Q 143.493 56.182 144.497 54.955 Q 145.5 53.729 146.035 52.168 Q 146.571 50.607 146.571 48.956 Q 146.571 47.217 145.968 45.656 Q 145.366 44.095 144.274 42.891 Q 143.181 41.687 141.731 40.995 Q 140.282 40.304 138.587 40.304 Q 137.517 40.304 136.379 40.705 Q 135.242 41.107 134.216 41.843 Q 133.191 42.579 132.477 43.515 Q 131.763 44.452 131.54 45.522 L 131.54 52.168 Q 132.209 53.684 133.324 54.933 Q 134.439 56.182 135.911 56.918 Q 137.383 57.653 138.944 57.653 Z" style="fill: rgb(255, 255, 255); white-space: pre;"/>
  <path d="M 155.352 60.597 L 155.352 37.316 L 167.394 37.316 Q 169.49 37.316 170.873 38.141 Q 172.256 38.966 172.947 40.259 Q 173.638 41.553 173.638 43.025 Q 173.638 44.898 172.746 46.392 Q 171.854 47.886 170.159 48.644 Q 172.166 49.224 173.415 50.718 Q 174.664 52.212 174.664 54.398 Q 174.664 56.36 173.727 57.743 Q 172.791 59.125 171.096 59.861 Q 169.401 60.597 167.171 60.597 Z M 159.099 57.832 L 167.082 57.832 Q 168.152 57.832 169.022 57.297 Q 169.892 56.761 170.382 55.869 Q 170.873 54.977 170.873 53.996 Q 170.873 52.926 170.405 52.056 Q 169.936 51.186 169.111 50.674 Q 168.286 50.161 167.216 50.161 L 159.099 50.161 Z M 159.099 47.574 L 166.368 47.574 Q 167.439 47.574 168.242 47.016 Q 169.044 46.459 169.49 45.567 Q 169.936 44.675 169.936 43.694 Q 169.936 42.222 168.978 41.151 Q 168.019 40.081 166.502 40.081 L 159.099 40.081 Z" style="fill: rgb(255, 255, 255); white-space: pre;"/>
  <path d="M 189.949 61.043 Q 187.318 61.043 185.155 60.084 Q 182.992 59.125 181.409 57.453 Q 179.825 55.78 178.956 53.595 Q 178.086 51.409 178.086 48.956 Q 178.086 45.656 179.602 42.935 Q 181.119 40.215 183.817 38.565 Q 186.515 36.914 189.994 36.914 Q 193.517 36.914 196.127 38.587 Q 198.736 40.259 200.185 42.958 Q 201.635 45.656 201.635 48.778 Q 201.635 49.224 201.612 49.648 Q 201.59 50.071 201.545 50.294 L 182.234 50.294 Q 182.412 52.569 183.505 54.331 Q 184.597 56.092 186.337 57.096 Q 188.076 58.099 190.083 58.099 Q 192.224 58.099 194.12 57.029 Q 196.015 55.959 196.729 54.219 L 200.118 55.156 Q 199.36 56.851 197.866 58.189 Q 196.372 59.527 194.343 60.285 Q 192.313 61.043 189.949 61.043 Z M 182.1 47.574 L 197.977 47.574 Q 197.799 45.299 196.684 43.56 Q 195.569 41.82 193.83 40.839 Q 192.09 39.858 189.994 39.858 Q 187.942 39.858 186.203 40.839 Q 184.464 41.82 183.371 43.56 Q 182.278 45.299 182.1 47.574 Z" style="fill: rgb(255, 255, 255); white-space: pre;"/>
  <path d="M 205.967 60.597 L 205.967 37.316 L 209.892 37.316 L 209.892 46.949 L 222.023 46.949 L 222.023 37.316 L 225.948 37.316 L 225.948 60.597 L 222.023 60.597 L 222.023 50.428 L 209.892 50.428 L 209.892 60.597 Z" style="fill: rgb(255, 255, 255); white-space: pre;"/>
  <path d="M 232.227 60.597 L 232.227 37.316 L 236.152 37.316 L 236.152 45.255 L 241.95 45.255 Q 246.053 45.255 248.172 47.329 Q 250.29 49.402 250.29 52.747 Q 250.29 54.977 249.376 56.761 Q 248.462 58.545 246.678 59.571 Q 244.894 60.597 242.218 60.597 Z M 236.152 57.52 L 241.682 57.52 Q 243.333 57.52 244.336 56.873 Q 245.34 56.226 245.83 55.156 Q 246.321 54.085 246.321 52.837 Q 246.321 51.632 245.875 50.607 Q 245.429 49.581 244.403 48.956 Q 243.377 48.332 241.593 48.332 L 236.152 48.332 Z" style="fill: rgb(255, 255, 255); white-space: pre;"/>
  <path d="M 349.705 194.541 Q 349.705 191.642 350.709 188.855 Q 351.712 186.067 353.653 183.77 Q 355.593 181.473 358.402 180.113 Q 361.212 178.753 364.78 178.753 Q 369.017 178.753 372.05 180.693 Q 375.083 182.633 376.555 185.666 L 373.388 187.717 Q 372.451 185.71 371.002 184.528 Q 369.552 183.346 367.88 182.856 Q 366.207 182.365 364.602 182.365 Q 361.97 182.365 359.941 183.436 Q 357.912 184.506 356.529 186.29 Q 355.147 188.074 354.455 190.282 Q 353.764 192.489 353.764 194.719 Q 353.764 197.172 354.589 199.447 Q 355.414 201.722 356.886 203.461 Q 358.358 205.2 360.365 206.226 Q 362.372 207.252 364.736 207.252 Q 366.386 207.252 368.125 206.672 Q 369.865 206.092 371.381 204.866 Q 372.897 203.639 373.789 201.677 L 377.134 203.506 Q 376.153 205.869 374.102 207.52 Q 372.05 209.17 369.53 210.017 Q 367.01 210.865 364.557 210.865 Q 361.301 210.865 358.581 209.46 Q 355.86 208.055 353.876 205.713 Q 351.891 203.372 350.798 200.451 Q 349.705 197.529 349.705 194.541 Z" style="fill: rgb(255, 255, 255); white-space: pre;"/>
  <path d="M 391.841 211.043 Q 389.21 211.043 387.047 210.084 Q 384.884 209.125 383.301 207.453 Q 381.717 205.78 380.848 203.595 Q 379.978 201.409 379.978 198.956 Q 379.978 195.656 381.494 192.935 Q 383.011 190.215 385.709 188.565 Q 388.407 186.914 391.886 186.914 Q 395.409 186.914 398.019 188.587 Q 400.628 190.259 402.077 192.958 Q 403.527 195.656 403.527 198.778 Q 403.527 199.224 403.504 199.648 Q 403.482 200.071 403.437 200.294 L 384.126 200.294 Q 384.304 202.569 385.397 204.331 Q 386.489 206.092 388.229 207.096 Q 389.968 208.099 391.975 208.099 Q 394.116 208.099 396.012 207.029 Q 397.907 205.959 398.621 204.219 L 402.01 205.156 Q 401.252 206.851 399.758 208.189 Q 398.264 209.527 396.235 210.285 Q 394.205 211.043 391.841 211.043 Z M 383.992 197.574 L 399.869 197.574 Q 399.691 195.299 398.576 193.56 Q 397.461 191.82 395.722 190.839 Q 393.982 189.858 391.886 189.858 Q 389.834 189.858 388.095 190.839 Q 386.356 191.82 385.263 193.56 Q 384.17 195.299 383.992 197.574 Z" style="fill: rgb(255, 255, 255); white-space: pre;"/>
  <path d="M 420.426 211.043 Q 417.571 211.043 415.341 209.616 Q 413.111 208.189 411.818 206.003 L 411.818 220.097 L 407.893 220.097 L 407.893 187.316 L 411.372 187.316 L 411.372 191.687 Q 412.754 189.546 414.984 188.23 Q 417.214 186.914 419.846 186.914 Q 422.254 186.914 424.261 187.896 Q 426.268 188.877 427.74 190.572 Q 429.212 192.266 430.037 194.43 Q 430.862 196.593 430.862 198.956 Q 430.862 202.257 429.546 205.022 Q 428.231 207.787 425.867 209.415 Q 423.503 211.043 420.426 211.043 Z M 419.221 207.653 Q 420.961 207.653 422.366 206.918 Q 423.771 206.182 424.774 204.955 Q 425.778 203.729 426.313 202.168 Q 426.848 200.607 426.848 198.956 Q 426.848 197.217 426.246 195.656 Q 425.644 194.095 424.551 192.891 Q 423.458 191.687 422.009 190.995 Q 420.559 190.304 418.865 190.304 Q 417.794 190.304 416.657 190.705 Q 415.52 191.107 414.494 191.843 Q 413.468 192.579 412.754 193.515 Q 412.041 194.452 411.818 195.522 L 411.818 202.168 Q 412.487 203.684 413.602 204.933 Q 414.717 206.182 416.189 206.918 Q 417.66 207.653 419.221 207.653 Z" style="fill: rgb(255, 255, 255); white-space: pre;"/>
  <path d="M 435.63 210.597 L 435.63 187.316 L 454.941 187.316 L 454.941 210.597 L 451.017 210.597 L 451.017 190.795 L 439.554 190.795 L 439.554 210.597 Z" style="fill: rgb(255, 255, 255); white-space: pre;"/>
  <path d="M 471.571 211.043 Q 468.939 211.043 466.776 210.084 Q 464.613 209.125 463.03 207.453 Q 461.446 205.78 460.577 203.595 Q 459.707 201.409 459.707 198.956 Q 459.707 195.656 461.223 192.935 Q 462.74 190.215 465.438 188.565 Q 468.136 186.914 471.615 186.914 Q 475.139 186.914 477.748 188.587 Q 480.357 190.259 481.806 192.958 Q 483.256 195.656 483.256 198.778 Q 483.256 199.224 483.234 199.648 Q 483.211 200.071 483.167 200.294 L 463.855 200.294 Q 464.033 202.569 465.126 204.331 Q 466.219 206.092 467.958 207.096 Q 469.697 208.099 471.704 208.099 Q 473.845 208.099 475.741 207.029 Q 477.636 205.959 478.35 204.219 L 481.739 205.156 Q 480.981 206.851 479.487 208.189 Q 477.993 209.527 475.964 210.285 Q 473.934 211.043 471.571 211.043 Z M 463.721 197.574 L 479.599 197.574 Q 479.42 195.299 478.305 193.56 Q 477.19 191.82 475.451 190.839 Q 473.711 189.858 471.615 189.858 Q 469.564 189.858 467.824 190.839 Q 466.085 191.82 464.992 193.56 Q 463.899 195.299 463.721 197.574 Z" style="fill: rgb(255, 255, 255); white-space: pre;"/>
  <path d="M 487.588 210.597 L 487.588 187.316 L 491.513 187.316 L 491.513 196.949 L 503.644 196.949 L 503.644 187.316 L 507.569 187.316 L 507.569 210.597 L 503.644 210.597 L 503.644 200.428 L 491.513 200.428 L 491.513 210.597 Z" style="fill: rgb(255, 255, 255); white-space: pre;"/>
  <path d="M 513.848 210.597 L 513.848 187.316 L 517.773 187.316 L 517.773 195.255 L 523.571 195.255 Q 527.674 195.255 529.793 197.329 Q 531.911 199.402 531.911 202.747 Q 531.911 204.977 530.997 206.761 Q 530.083 208.545 528.299 209.571 Q 526.515 210.597 523.839 210.597 Z M 517.773 207.52 L 523.304 207.52 Q 524.954 207.52 525.957 206.873 Q 526.961 206.226 527.451 205.156 Q 527.942 204.085 527.942 202.837 Q 527.942 201.632 527.496 200.607 Q 527.05 199.581 526.024 198.956 Q 524.998 198.332 523.214 198.332 L 517.773 198.332 Z" style="fill: rgb(255, 255, 255); white-space: pre;"/>
  <path d="M 71.958 374.748 Q 71.958 377.201 70.709 379.03 Q 69.46 380.858 67.342 381.884 Q 65.223 382.91 62.681 382.91 L 47.651 382.91 L 47.651 351.244 L 63.395 351.244 Q 65.625 351.244 67.253 352.426 Q 68.881 353.608 69.75 355.459 Q 70.62 357.31 70.62 359.317 Q 70.62 361.636 69.438 363.665 Q 68.256 365.694 66.071 366.676 Q 68.791 367.478 70.375 369.642 Q 71.958 371.805 71.958 374.748 Z M 67.899 374.035 Q 67.899 372.563 67.253 371.314 Q 66.606 370.065 65.513 369.307 Q 64.421 368.549 62.993 368.549 L 51.665 368.549 L 51.665 379.431 L 62.681 379.431 Q 64.153 379.431 65.335 378.673 Q 66.517 377.915 67.208 376.688 Q 67.899 375.462 67.899 374.035 Z M 51.665 354.723 L 51.665 365.293 L 61.745 365.293 Q 63.172 365.293 64.265 364.579 Q 65.357 363.866 66.004 362.662 Q 66.651 361.457 66.651 360.03 Q 66.651 358.514 66.049 357.332 Q 65.446 356.15 64.398 355.436 Q 63.35 354.723 62.012 354.723 Z" style="fill: rgb(255, 255, 255); white-space: pre;"/>
  <path d="M 87.246 383.356 Q 84.614 383.356 82.451 382.397 Q 80.288 381.438 78.705 379.766 Q 77.122 378.093 76.252 375.908 Q 75.382 373.722 75.382 371.269 Q 75.382 367.969 76.899 365.248 Q 78.415 362.528 81.113 360.878 Q 83.812 359.227 87.29 359.227 Q 90.814 359.227 93.423 360.9 Q 96.032 362.572 97.482 365.271 Q 98.931 367.969 98.931 371.091 Q 98.931 371.537 98.909 371.961 Q 98.886 372.384 98.842 372.607 L 79.53 372.607 Q 79.708 374.882 80.801 376.644 Q 81.894 378.405 83.633 379.409 Q 85.373 380.412 87.38 380.412 Q 89.52 380.412 91.416 379.342 Q 93.311 378.272 94.025 376.532 L 97.415 377.469 Q 96.656 379.164 95.162 380.502 Q 93.668 381.84 91.639 382.598 Q 89.61 383.356 87.246 383.356 Z M 79.396 369.887 L 95.274 369.887 Q 95.095 367.612 93.98 365.873 Q 92.865 364.133 91.126 363.152 Q 89.387 362.171 87.29 362.171 Q 85.239 362.171 83.499 363.152 Q 81.76 364.133 80.667 365.873 Q 79.575 367.612 79.396 369.887 Z" style="fill: rgb(255, 255, 255); white-space: pre;"/>
  <path d="M 115.83 383.356 Q 112.976 383.356 110.746 381.929 Q 108.516 380.502 107.222 378.316 L 107.222 392.41 L 103.297 392.41 L 103.297 359.629 L 106.776 359.629 L 106.776 364 Q 108.159 361.859 110.389 360.543 Q 112.619 359.227 115.25 359.227 Q 117.659 359.227 119.666 360.209 Q 121.673 361.19 123.144 362.885 Q 124.616 364.579 125.441 366.743 Q 126.266 368.906 126.266 371.269 Q 126.266 374.57 124.951 377.335 Q 123.635 380.1 121.271 381.728 Q 118.907 383.356 115.83 383.356 Z M 114.626 379.966 Q 116.365 379.966 117.77 379.231 Q 119.175 378.495 120.179 377.268 Q 121.182 376.042 121.717 374.481 Q 122.252 372.92 122.252 371.269 Q 122.252 369.53 121.65 367.969 Q 121.048 366.408 119.956 365.204 Q 118.863 364 117.413 363.308 Q 115.964 362.617 114.269 362.617 Q 113.199 362.617 112.061 363.018 Q 110.924 363.42 109.898 364.156 Q 108.872 364.892 108.159 365.828 Q 107.445 366.765 107.222 367.835 L 107.222 374.481 Q 107.891 375.997 109.006 377.246 Q 110.121 378.495 111.593 379.231 Q 113.065 379.966 114.626 379.966 Z" style="fill: rgb(255, 255, 255); white-space: pre;"/>
  <path d="M 141.381 383.356 Q 138.75 383.356 136.587 382.397 Q 134.424 381.438 132.84 379.766 Q 131.257 378.093 130.387 375.908 Q 129.518 373.722 129.518 371.269 Q 129.518 367.969 131.034 365.248 Q 132.55 362.528 135.249 360.878 Q 137.947 359.227 141.426 359.227 Q 144.949 359.227 147.558 360.9 Q 150.167 362.572 151.617 365.271 Q 153.066 367.969 153.066 371.091 Q 153.066 371.537 153.044 371.961 Q 153.022 372.384 152.977 372.607 L 133.665 372.607 Q 133.844 374.882 134.937 376.644 Q 136.029 378.405 137.769 379.409 Q 139.508 380.412 141.515 380.412 Q 143.656 380.412 145.551 379.342 Q 147.447 378.272 148.16 376.532 L 151.55 377.469 Q 150.792 379.164 149.298 380.502 Q 147.804 381.84 145.774 382.598 Q 143.745 383.356 141.381 383.356 Z M 133.532 369.887 L 149.409 369.887 Q 149.231 367.612 148.116 365.873 Q 147.001 364.133 145.261 363.152 Q 143.522 362.171 141.426 362.171 Q 139.374 362.171 137.635 363.152 Q 135.895 364.133 134.803 365.873 Q 133.71 367.612 133.532 369.887 Z" style="fill: rgb(255, 255, 255); white-space: pre;"/>
  <path d="M 167.735 383.356 Q 165.104 383.356 162.941 382.397 Q 160.778 381.438 159.195 379.743 Q 157.611 378.049 156.742 375.863 Q 155.872 373.678 155.872 371.225 Q 155.872 367.924 157.344 365.204 Q 158.815 362.483 161.491 360.855 Q 164.167 359.227 167.691 359.227 Q 171.125 359.227 173.69 360.766 Q 176.254 362.305 177.503 364.892 L 173.667 366.096 Q 172.775 364.446 171.17 363.531 Q 169.564 362.617 167.602 362.617 Q 165.461 362.617 163.699 363.732 Q 161.937 364.847 160.912 366.787 Q 159.886 368.727 159.886 371.225 Q 159.886 373.678 160.934 375.663 Q 161.982 377.647 163.744 378.807 Q 165.505 379.966 167.646 379.966 Q 169.029 379.966 170.3 379.476 Q 171.571 378.985 172.53 378.16 Q 173.489 377.335 173.846 376.354 L 177.681 377.513 Q 176.968 379.208 175.518 380.524 Q 174.069 381.84 172.084 382.598 Q 170.099 383.356 167.735 383.356 Z" style="fill: rgb(255, 255, 255); white-space: pre;"/>
  <path d="M 192.215 383.356 Q 189.583 383.356 187.42 382.397 Q 185.257 381.438 183.674 379.766 Q 182.09 378.093 181.221 375.908 Q 180.351 373.722 180.351 371.269 Q 180.351 367.969 181.867 365.248 Q 183.384 362.528 186.082 360.878 Q 188.78 359.227 192.259 359.227 Q 195.783 359.227 198.392 360.9 Q 201.001 362.572 202.45 365.271 Q 203.9 367.969 203.9 371.091 Q 203.9 371.537 203.878 371.961 Q 203.855 372.384 203.811 372.607 L 184.499 372.607 Q 184.677 374.882 185.77 376.644 Q 186.863 378.405 188.602 379.409 Q 190.341 380.412 192.348 380.412 Q 194.489 380.412 196.385 379.342 Q 198.28 378.272 198.994 376.532 L 202.383 377.469 Q 201.625 379.164 200.131 380.502 Q 198.637 381.84 196.608 382.598 Q 194.578 383.356 192.215 383.356 Z M 184.365 369.887 L 200.243 369.887 Q 200.064 367.612 198.949 365.873 Q 197.834 364.133 196.095 363.152 Q 194.355 362.171 192.259 362.171 Q 190.208 362.171 188.468 363.152 Q 186.729 364.133 185.636 365.873 Q 184.543 367.612 184.365 369.887 Z" style="fill: rgb(255, 255, 255); white-space: pre;"/>
  <path d="M 208.222 382.91 L 208.222 359.629 L 212.146 359.629 L 212.146 369.262 L 224.278 369.262 L 224.278 359.629 L 228.202 359.629 L 228.202 382.91 L 224.278 382.91 L 224.278 372.741 L 212.146 372.741 L 212.146 382.91 Z" style="fill: rgb(255, 255, 255); white-space: pre;"/>
  <path d="M 234.492 382.91 L 234.492 359.629 L 238.417 359.629 L 238.417 367.568 L 244.215 367.568 Q 248.318 367.568 250.437 369.642 Q 252.555 371.715 252.555 375.06 Q 252.555 377.29 251.641 379.074 Q 250.727 380.858 248.943 381.884 Q 247.159 382.91 244.483 382.91 Z M 238.417 379.833 L 243.948 379.833 Q 245.598 379.833 246.601 379.186 Q 247.605 378.539 248.095 377.469 Q 248.586 376.398 248.586 375.15 Q 248.586 373.945 248.14 372.92 Q 247.694 371.894 246.668 371.269 Q 245.642 370.645 243.858 370.645 L 238.417 370.645 Z" style="fill: rgb(255, 255, 255); white-space: pre;"/>
  <path d="M 360.285 535.989 L 372.55 519.621 L 361.043 504.323 L 365.771 504.323 L 375.895 518.015 L 379.731 518.015 L 379.731 504.323 L 383.745 504.323 L 383.745 518.015 L 387.536 518.015 L 397.704 504.323 L 402.387 504.323 L 390.881 519.621 L 403.19 535.989 L 398.507 535.989 L 387.625 521.672 L 383.745 521.672 L 383.745 535.989 L 379.731 535.989 L 379.731 521.672 L 375.806 521.672 L 364.923 535.989 Z" style="fill: rgb(255, 255, 255); white-space: pre;"/>
  <path d="M 416.162 536.435 Q 413.53 536.435 411.389 535.476 Q 409.249 534.517 407.688 532.845 Q 406.127 531.172 405.279 528.987 Q 404.432 526.801 404.432 524.393 Q 404.432 521.94 405.279 519.755 Q 406.127 517.569 407.688 515.897 Q 409.249 514.224 411.412 513.265 Q 413.575 512.306 416.206 512.306 Q 418.793 512.306 420.934 513.265 Q 423.075 514.224 424.658 515.897 Q 426.241 517.569 427.089 519.755 Q 427.936 521.94 427.936 524.393 Q 427.936 526.801 427.089 528.987 Q 426.241 531.172 424.68 532.845 Q 423.119 534.517 420.956 535.476 Q 418.793 536.435 416.162 536.435 Z M 408.446 524.438 Q 408.446 526.846 409.494 528.808 Q 410.542 530.771 412.281 531.908 Q 414.021 533.045 416.162 533.045 Q 418.302 533.045 420.064 531.886 Q 421.826 530.726 422.874 528.742 Q 423.922 526.757 423.922 524.348 Q 423.922 521.94 422.874 519.978 Q 421.826 518.015 420.064 516.856 Q 418.302 515.696 416.162 515.696 Q 414.021 515.696 412.281 516.878 Q 410.542 518.06 409.494 520.022 Q 408.446 521.985 408.446 524.438 Z" style="fill: rgb(255, 255, 255); white-space: pre;"/>
  <path d="M 432.657 535.989 L 432.657 512.708 L 444.699 512.708 Q 446.795 512.708 448.177 513.533 Q 449.56 514.358 450.251 515.651 Q 450.943 516.945 450.943 518.417 Q 450.943 520.29 450.051 521.784 Q 449.159 523.278 447.464 524.036 Q 449.471 524.616 450.72 526.11 Q 451.968 527.604 451.968 529.79 Q 451.968 531.752 451.032 533.135 Q 450.095 534.517 448.4 535.253 Q 446.706 535.989 444.476 535.989 Z M 436.403 533.224 L 444.386 533.224 Q 445.457 533.224 446.327 532.689 Q 447.196 532.153 447.687 531.261 Q 448.177 530.369 448.177 529.388 Q 448.177 528.318 447.709 527.448 Q 447.241 526.578 446.416 526.066 Q 445.591 525.553 444.52 525.553 L 436.403 525.553 Z M 436.403 522.966 L 443.673 522.966 Q 444.743 522.966 445.546 522.408 Q 446.349 521.851 446.795 520.959 Q 447.241 520.067 447.241 519.086 Q 447.241 517.614 446.282 516.543 Q 445.323 515.473 443.807 515.473 L 436.403 515.473 Z" style="fill: rgb(255, 255, 255); white-space: pre;"/>
  <path d="M 462.626 535.989 L 462.626 516.187 L 454.598 516.187 L 454.598 512.708 L 474.579 512.708 L 474.579 516.187 L 466.551 516.187 L 466.551 535.989 Z" style="fill: rgb(255, 255, 255); white-space: pre;"/>
  <path d="M 488.795 536.435 Q 486.164 536.435 484.001 535.476 Q 481.838 534.517 480.255 532.845 Q 478.671 531.172 477.802 528.987 Q 476.932 526.801 476.932 524.348 Q 476.932 521.048 478.448 518.327 Q 479.965 515.607 482.663 513.957 Q 485.361 512.306 488.84 512.306 Q 492.363 512.306 494.973 513.979 Q 497.582 515.651 499.031 518.35 Q 500.481 521.048 500.481 524.17 Q 500.481 524.616 500.458 525.04 Q 500.436 525.463 500.391 525.686 L 481.08 525.686 Q 481.258 527.961 482.351 529.723 Q 483.443 531.484 485.183 532.488 Q 486.922 533.491 488.929 533.491 Q 491.07 533.491 492.966 532.421 Q 494.861 531.351 495.575 529.611 L 498.964 530.548 Q 498.206 532.243 496.712 533.581 Q 495.218 534.919 493.189 535.677 Q 491.159 536.435 488.795 536.435 Z M 480.946 522.966 L 496.823 522.966 Q 496.645 520.691 495.53 518.952 Q 494.415 517.212 492.676 516.231 Q 490.936 515.25 488.84 515.25 Q 486.788 515.25 485.049 516.231 Q 483.31 517.212 482.217 518.952 Q 481.124 520.691 480.946 522.966 Z" style="fill: rgb(255, 255, 255); white-space: pre;"/>
  <path d="M 504.802 535.989 L 504.802 512.708 L 508.727 512.708 L 508.727 522.341 L 520.858 522.341 L 520.858 512.708 L 524.783 512.708 L 524.783 535.989 L 520.858 535.989 L 520.858 525.82 L 508.727 525.82 L 508.727 535.989 Z" style="fill: rgb(255, 255, 255); white-space: pre;"/>
  <path d="M 531.073 535.989 L 531.073 512.708 L 534.998 512.708 L 534.998 520.647 L 540.796 520.647 Q 544.899 520.647 547.018 522.721 Q 549.136 524.794 549.136 528.139 Q 549.136 530.369 548.222 532.153 Q 547.308 533.937 545.524 534.963 Q 543.74 535.989 541.064 535.989 Z M 534.998 532.912 L 540.528 532.912 Q 542.179 532.912 543.182 532.265 Q 544.186 531.618 544.676 530.548 Q 545.167 529.477 545.167 528.229 Q 545.167 527.024 544.721 525.999 Q 544.275 524.973 543.249 524.348 Q 542.223 523.724 540.439 523.724 L 534.998 523.724 Z" style="fill: rgb(255, 255, 255); white-space: pre;"/>
  <path d="M 78.828 665.681 L 78.828 637.583 L 67.009 637.583 L 66.831 643.872 Q 66.608 650.339 65.872 654.598 Q 65.136 658.857 63.776 661.288 Q 62.415 663.719 60.408 664.744 Q 58.401 665.77 55.636 665.77 L 55.636 662.247 Q 57.331 662.247 58.624 661.399 Q 59.918 660.552 60.832 658.434 Q 61.746 656.315 62.281 652.524 Q 62.817 648.733 62.995 642.846 L 63.263 634.015 L 82.842 634.015 L 82.842 665.681 Z" style="fill: rgb(255, 255, 255); white-space: pre;"/>
  <path d="M 89.749 665.681 L 89.749 642.444 L 93.674 642.444 L 93.674 660.418 L 106.697 642.4 L 110.265 642.4 L 110.265 665.681 L 106.34 665.681 L 106.34 648.064 L 93.495 665.681 Z" style="fill: rgb(255, 255, 255); white-space: pre;"/>
  <path d="M 126.846 666.127 Q 124.215 666.127 122.052 665.168 Q 119.889 664.209 118.305 662.514 Q 116.722 660.82 115.852 658.634 Q 114.983 656.449 114.983 653.996 Q 114.983 650.695 116.454 647.975 Q 117.926 645.254 120.602 643.626 Q 123.278 641.998 126.802 641.998 Q 130.236 641.998 132.8 643.537 Q 135.365 645.076 136.614 647.663 L 132.778 648.867 Q 131.886 647.217 130.28 646.302 Q 128.675 645.388 126.712 645.388 Q 124.572 645.388 122.81 646.503 Q 121.048 647.618 120.022 649.558 Q 118.997 651.498 118.997 653.996 Q 118.997 656.449 120.045 658.434 Q 121.093 660.418 122.855 661.578 Q 124.616 662.737 126.757 662.737 Q 128.14 662.737 129.411 662.247 Q 130.682 661.756 131.641 660.931 Q 132.6 660.106 132.956 659.125 L 136.792 660.284 Q 136.078 661.979 134.629 663.295 Q 133.179 664.611 131.195 665.369 Q 129.21 666.127 126.846 666.127 Z" style="fill: rgb(255, 255, 255); white-space: pre;"/>
  <path d="M 146.916 665.681 L 146.916 645.879 L 138.888 645.879 L 138.888 642.4 L 158.869 642.4 L 158.869 645.879 L 150.841 645.879 L 150.841 665.681 Z" style="fill: rgb(255, 255, 255); white-space: pre;"/>
  <path d="M 172.962 666.127 Q 170.331 666.127 168.19 665.168 Q 166.049 664.209 164.488 662.537 Q 162.927 660.864 162.08 658.679 Q 161.233 656.493 161.233 654.085 Q 161.233 651.632 162.08 649.447 Q 162.927 647.261 164.488 645.589 Q 166.049 643.916 168.213 642.957 Q 170.376 641.998 173.007 641.998 Q 175.594 641.998 177.735 642.957 Q 179.875 643.916 181.459 645.589 Q 183.042 647.261 183.889 649.447 Q 184.737 651.632 184.737 654.085 Q 184.737 656.493 183.889 658.679 Q 183.042 660.864 181.481 662.537 Q 179.92 664.209 177.757 665.168 Q 175.594 666.127 172.962 666.127 Z M 165.247 654.13 Q 165.247 656.538 166.295 658.5 Q 167.343 660.463 169.082 661.6 Q 170.822 662.737 172.962 662.737 Q 175.103 662.737 176.865 661.578 Q 178.627 660.418 179.675 658.434 Q 180.723 656.449 180.723 654.04 Q 180.723 651.632 179.675 649.67 Q 178.627 647.707 176.865 646.548 Q 175.103 645.388 172.962 645.388 Q 170.822 645.388 169.082 646.57 Q 167.343 647.752 166.295 649.714 Q 165.247 651.677 165.247 654.13 Z" style="fill: rgb(255, 255, 255); white-space: pre;"/>
  <path d="M 189.457 665.681 L 189.457 642.4 L 208.769 642.4 L 208.769 665.681 L 204.844 665.681 L 204.844 645.879 L 193.382 645.879 L 193.382 665.681 Z" style="fill: rgb(255, 255, 255); white-space: pre;"/>
  <path d="M 213.267 658.946 Q 213.267 656.716 214.538 655.089 Q 215.809 653.461 218.039 652.569 Q 220.269 651.677 223.213 651.677 Q 224.774 651.677 226.513 651.922 Q 228.253 652.167 229.591 652.658 L 229.591 650.963 Q 229.591 648.287 227.985 646.748 Q 226.38 645.21 223.436 645.21 Q 221.518 645.21 219.756 645.901 Q 217.995 646.592 216.032 647.886 L 214.605 645.12 Q 216.88 643.559 219.154 642.779 Q 221.429 641.998 223.882 641.998 Q 228.342 641.998 230.929 644.474 Q 233.516 646.949 233.516 651.364 L 233.516 661.221 Q 233.516 661.935 233.805 662.269 Q 234.095 662.604 234.764 662.648 L 234.764 665.681 Q 234.185 665.77 233.761 665.815 Q 233.337 665.859 233.07 665.859 Q 231.687 665.859 230.996 665.101 Q 230.304 664.343 230.215 663.496 L 230.126 662.024 Q 228.61 663.986 226.157 665.057 Q 223.704 666.127 221.295 666.127 Q 218.976 666.127 217.147 665.168 Q 215.319 664.209 214.293 662.581 Q 213.267 660.953 213.267 658.946 Z M 228.431 660.597 Q 228.966 659.972 229.279 659.326 Q 229.591 658.679 229.591 658.233 L 229.591 655.334 Q 228.208 654.799 226.692 654.509 Q 225.175 654.219 223.704 654.219 Q 220.715 654.219 218.864 655.401 Q 217.014 656.583 217.014 658.634 Q 217.014 659.749 217.616 660.797 Q 218.218 661.845 219.4 662.514 Q 220.582 663.183 222.321 663.183 Q 224.15 663.183 225.8 662.448 Q 227.45 661.712 228.431 660.597 Z" style="fill: rgb(255, 255, 255); white-space: pre;"/>
  <path d="M 237.217 671.167 L 237.217 662.202 L 237.708 662.202 Q 238.689 662.202 239.514 661.622 Q 240.339 661.043 240.986 659.593 Q 241.633 658.144 242.034 655.601 Q 242.435 653.059 242.569 649.134 L 242.792 642.4 L 258.625 642.4 L 258.625 662.202 L 261.792 662.202 L 261.792 671.167 L 258.313 671.167 L 258.313 665.681 L 240.696 665.681 L 240.696 671.167 Z M 243.194 662.202 L 254.7 662.202 L 254.7 645.879 L 246.271 645.879 L 246.137 649.491 Q 246.003 653.282 245.624 655.847 Q 245.245 658.411 244.643 659.928 Q 244.041 661.444 243.194 662.202 Z" style="fill: rgb(255, 255, 255); white-space: pre;"/>
  <path d="M 355.519 812.382 L 355.519 780.716 L 373.939 780.716 L 373.939 784.284 L 359.533 784.284 L 359.533 812.382 Z" style="fill: rgb(255, 255, 255); white-space: pre;"/>
  <path d="M 390.74 812.828 Q 387.885 812.828 385.655 811.401 Q 383.425 809.974 382.132 807.788 L 382.132 821.882 L 378.207 821.882 L 378.207 789.101 L 381.686 789.101 L 381.686 793.472 Q 383.068 791.331 385.298 790.015 Q 387.528 788.699 390.16 788.699 Q 392.568 788.699 394.575 789.681 Q 396.582 790.662 398.054 792.357 Q 399.526 794.051 400.351 796.215 Q 401.176 798.378 401.176 800.741 Q 401.176 804.042 399.86 806.807 Q 398.545 809.572 396.181 811.2 Q 393.817 812.828 390.74 812.828 Z M 389.535 809.438 Q 391.275 809.438 392.68 808.703 Q 394.085 807.967 395.088 806.74 Q 396.092 805.514 396.627 803.953 Q 397.162 802.392 397.162 800.741 Q 397.162 799.002 396.56 797.441 Q 395.958 795.88 394.865 794.676 Q 393.772 793.472 392.323 792.78 Q 390.873 792.089 389.179 792.089 Q 388.108 792.089 386.971 792.49 Q 385.834 792.892 384.808 793.628 Q 383.782 794.364 383.068 795.3 Q 382.355 796.237 382.132 797.307 L 382.132 803.953 Q 382.801 805.469 383.916 806.718 Q 385.031 807.967 386.503 808.703 Q 387.974 809.438 389.535 809.438 Z" style="fill: rgb(255, 255, 255); white-space: pre;"/>
  <path d="M 408.085 822.149 Q 407.327 822.149 406.547 821.926 Q 405.766 821.703 404.963 821.257 L 406.301 818.581 Q 406.703 818.804 407.082 818.916 Q 407.461 819.027 407.818 819.027 Q 408.888 819.027 409.847 818.024 Q 410.806 817.02 411.653 814.969 L 412.768 812.159 L 402.555 789.101 L 406.703 789.101 L 414.552 808.413 L 421.644 789.101 L 425.524 789.101 L 414.641 816.173 Q 413.839 818.18 412.813 819.496 Q 411.787 820.811 410.583 821.48 Q 409.379 822.149 408.085 822.149 Z" style="fill: rgb(255, 255, 255); white-space: pre;"/>
  <path d="M 426.912 817.868 L 426.912 808.903 L 427.403 808.903 Q 428.384 808.903 429.209 808.323 Q 430.034 807.744 430.681 806.294 Q 431.327 804.845 431.729 802.302 Q 432.13 799.76 432.264 795.835 L 432.487 789.101 L 448.32 789.101 L 448.32 808.903 L 451.487 808.903 L 451.487 817.868 L 448.008 817.868 L 448.008 812.382 L 430.391 812.382 L 430.391 817.868 Z M 432.888 808.903 L 444.395 808.903 L 444.395 792.58 L 435.966 792.58 L 435.832 796.192 Q 435.698 799.983 435.319 802.548 Q 434.94 805.112 434.338 806.629 Q 433.736 808.145 432.888 808.903 Z" style="fill: rgb(255, 255, 255); white-space: pre;"/>
  <path d="M 466.156 812.828 Q 463.524 812.828 461.361 811.869 Q 459.198 810.91 457.615 809.238 Q 456.031 807.565 455.162 805.38 Q 454.292 803.194 454.292 800.741 Q 454.292 797.441 455.808 794.72 Q 457.325 792 460.023 790.35 Q 462.721 788.699 466.2 788.699 Q 469.724 788.699 472.333 790.372 Q 474.942 792.044 476.391 794.743 Q 477.841 797.441 477.841 800.563 Q 477.841 801.009 477.818 801.433 Q 477.796 801.856 477.752 802.079 L 458.44 802.079 Q 458.618 804.354 459.711 806.116 Q 460.804 807.877 462.543 808.881 Q 464.282 809.884 466.289 809.884 Q 468.43 809.884 470.326 808.814 Q 472.221 807.744 472.935 806.004 L 476.324 806.941 Q 475.566 808.636 474.072 809.974 Q 472.578 811.312 470.549 812.07 Q 468.519 812.828 466.156 812.828 Z M 458.306 799.359 L 474.184 799.359 Q 474.005 797.084 472.89 795.345 Q 471.775 793.605 470.036 792.624 Q 468.296 791.643 466.2 791.643 Q 464.149 791.643 462.409 792.624 Q 460.67 793.605 459.577 795.345 Q 458.484 797.084 458.306 799.359 Z" style="fill: rgb(255, 255, 255); white-space: pre;"/>
  <path d="M 482.162 812.382 L 482.162 789.101 L 486.087 789.101 L 486.087 798.734 L 498.218 798.734 L 498.218 789.101 L 502.143 789.101 L 502.143 812.382 L 498.218 812.382 L 498.218 802.213 L 486.087 802.213 L 486.087 812.382 Z" style="fill: rgb(255, 255, 255); white-space: pre;"/>
  <path d="M 508.423 812.382 L 508.423 789.101 L 512.348 789.101 L 512.348 797.04 L 518.146 797.04 Q 522.249 797.04 524.367 799.114 Q 526.486 801.187 526.486 804.532 Q 526.486 806.762 525.572 808.546 Q 524.657 810.33 522.873 811.356 Q 521.089 812.382 518.413 812.382 Z M 512.348 809.305 L 517.878 809.305 Q 519.528 809.305 520.532 808.658 Q 521.535 808.011 522.026 806.941 Q 522.517 805.87 522.517 804.622 Q 522.517 803.417 522.071 802.392 Q 521.625 801.366 520.599 800.741 Q 519.573 800.117 517.789 800.117 L 512.348 800.117 Z" style="fill: rgb(255, 255, 255); white-space: pre;"/>
  <path d="M 107.903 952.948 Q 107.903 950.049 108.907 947.262 Q 109.91 944.474 111.851 942.177 Q 113.791 939.88 116.6 938.52 Q 119.41 937.16 122.978 937.16 Q 127.215 937.16 130.248 939.1 Q 133.281 941.04 134.753 944.073 L 131.586 946.124 Q 130.649 944.117 129.2 942.935 Q 127.75 941.753 126.078 941.263 Q 124.405 940.772 122.8 940.772 Q 120.168 940.772 118.139 941.843 Q 116.11 942.913 114.727 944.697 Q 113.345 946.481 112.653 948.689 Q 111.962 950.896 111.962 953.126 Q 111.962 955.579 112.787 957.854 Q 113.612 960.129 115.084 961.868 Q 116.556 963.607 118.563 964.633 Q 120.57 965.659 122.934 965.659 Q 124.584 965.659 126.323 965.079 Q 128.063 964.499 129.579 963.273 Q 131.095 962.046 131.987 960.084 L 135.332 961.913 Q 134.351 964.276 132.3 965.927 Q 130.248 967.577 127.728 968.424 Q 125.208 969.272 122.755 969.272 Q 119.499 969.272 116.779 967.867 Q 114.058 966.462 112.074 964.12 Q 110.089 961.779 108.996 958.858 Q 107.903 955.936 107.903 952.948 Z" style="fill: rgb(255, 255, 255); white-space: pre;"/>
  <path d="M 139.737 969.004 L 139.737 945.723 L 143.662 945.723 L 143.662 969.004 Z M 139.737 941.352 L 139.737 936.446 L 143.662 936.446 L 143.662 941.352 Z" style="fill: rgb(255, 255, 255); white-space: pre;"/>
  <path d="M 163.199 969.004 L 163.199 959.683 Q 161.816 960.352 160.322 960.664 Q 158.828 960.976 157.044 960.976 Q 153.253 960.976 151.268 958.991 Q 149.284 957.007 149.284 953.037 L 149.284 945.723 L 153.208 945.723 L 153.208 952.502 Q 153.208 955.312 154.368 956.605 Q 155.528 957.899 158.07 957.899 Q 159.497 957.899 160.902 957.586 Q 162.307 957.274 163.199 956.739 L 163.199 945.723 L 167.168 945.723 L 167.168 969.004 Z" style="fill: rgb(255, 255, 255); white-space: pre;"/>
  <path d="M 183.8 969.45 Q 181.168 969.45 179.005 968.491 Q 176.842 967.532 175.259 965.86 Q 173.676 964.187 172.806 962.002 Q 171.936 959.816 171.936 957.363 Q 171.936 954.063 173.453 951.342 Q 174.969 948.622 177.667 946.972 Q 180.366 945.321 183.844 945.321 Q 187.368 945.321 189.977 946.994 Q 192.586 948.666 194.036 951.365 Q 195.485 954.063 195.485 957.185 Q 195.485 957.631 195.463 958.055 Q 195.44 958.478 195.396 958.701 L 176.084 958.701 Q 176.262 960.976 177.355 962.738 Q 178.448 964.499 180.187 965.503 Q 181.927 966.506 183.934 966.506 Q 186.074 966.506 187.97 965.436 Q 189.865 964.366 190.579 962.626 L 193.969 963.563 Q 193.21 965.258 191.716 966.596 Q 190.222 967.934 188.193 968.692 Q 186.164 969.45 183.8 969.45 Z M 175.95 955.981 L 191.828 955.981 Q 191.649 953.706 190.534 951.967 Q 189.419 950.227 187.68 949.246 Q 185.941 948.265 183.844 948.265 Q 181.793 948.265 180.053 949.246 Q 178.314 950.227 177.221 951.967 Q 176.129 953.706 175.95 955.981 Z" style="fill: rgb(255, 255, 255); white-space: pre;"/>
  <path d="M 199.807 969.004 L 199.807 945.723 L 203.732 945.723 L 203.732 955.356 L 215.863 955.356 L 215.863 945.723 L 219.788 945.723 L 219.788 969.004 L 215.863 969.004 L 215.863 958.835 L 203.732 958.835 L 203.732 969.004 Z" style="fill: rgb(255, 255, 255); white-space: pre;"/>
  <path d="M 226.067 969.004 L 226.067 945.723 L 229.992 945.723 L 229.992 953.662 L 235.79 953.662 Q 239.893 953.662 242.012 955.736 Q 244.13 957.809 244.13 961.154 Q 244.13 963.384 243.216 965.168 Q 242.302 966.952 240.518 967.978 Q 238.734 969.004 236.058 969.004 Z M 229.992 965.927 L 235.522 965.927 Q 237.173 965.927 238.176 965.28 Q 239.18 964.633 239.67 963.563 Q 240.161 962.492 240.161 961.244 Q 240.161 960.039 239.715 959.014 Q 239.269 957.988 238.243 957.363 Q 237.217 956.739 235.433 956.739 L 229.992 956.739 Z" style="fill: rgb(255, 255, 255); white-space: pre;"/>
  <path d="M 390.301 1129.6 L 390.301 1101.502 L 378.482 1101.502 L 378.304 1107.791 Q 378.081 1114.258 377.345 1118.517 Q 376.609 1122.776 375.249 1125.207 Q 373.888 1127.638 371.881 1128.663 Q 369.874 1129.689 367.109 1129.689 L 367.109 1126.166 Q 368.804 1126.166 370.097 1125.318 Q 371.391 1124.471 372.305 1122.352 Q 373.219 1120.234 373.754 1116.443 Q 374.29 1112.652 374.468 1106.765 L 374.736 1097.934 L 394.315 1097.934 L 394.315 1129.6 Z" style="fill: rgb(255, 255, 255); white-space: pre;"/>
  <path d="M 420.489 1130.046 Q 417.412 1130.046 415.048 1128.708 Q 412.684 1127.37 411.257 1125.028 Q 409.83 1122.687 409.518 1119.699 L 405.191 1119.699 L 405.191 1129.6 L 401.267 1129.6 L 401.267 1106.319 L 405.191 1106.319 L 405.191 1116.265 L 409.518 1116.265 Q 409.874 1113.187 411.324 1110.846 Q 412.773 1108.504 415.137 1107.211 Q 417.501 1105.917 420.489 1105.917 Q 424.013 1105.917 426.555 1107.545 Q 429.097 1109.173 430.48 1111.894 Q 431.862 1114.614 431.862 1118.004 Q 431.862 1121.483 430.457 1124.203 Q 429.052 1126.924 426.488 1128.485 Q 423.923 1130.046 420.489 1130.046 Z M 420.489 1126.656 Q 422.675 1126.656 424.325 1125.541 Q 425.975 1124.426 426.912 1122.486 Q 427.848 1120.546 427.848 1118.004 Q 427.848 1115.328 426.889 1113.388 Q 425.93 1111.448 424.258 1110.377 Q 422.585 1109.307 420.489 1109.307 Q 418.393 1109.307 416.765 1110.4 Q 415.137 1111.492 414.245 1113.455 Q 413.353 1115.417 413.353 1118.004 Q 413.353 1120.635 414.268 1122.598 Q 415.182 1124.56 416.81 1125.608 Q 418.438 1126.656 420.489 1126.656 Z" style="fill: rgb(255, 255, 255); white-space: pre;"/>
  <path d="M 442.285 1129.6 L 442.285 1109.798 L 434.257 1109.798 L 434.257 1106.319 L 454.238 1106.319 L 454.238 1109.798 L 446.21 1109.798 L 446.21 1129.6 Z" style="fill: rgb(255, 255, 255); white-space: pre;"/>
  <path d="M 458.118 1129.6 L 458.118 1106.363 L 462.043 1106.363 L 462.043 1124.337 L 475.066 1106.319 L 478.634 1106.319 L 478.634 1129.6 L 474.709 1129.6 L 474.709 1111.983 L 461.864 1129.6 Z" style="fill: rgb(255, 255, 255); white-space: pre;"/>
  <path d="M 484.878 1129.6 L 484.878 1106.363 L 488.803 1106.363 L 488.803 1124.337 L 501.826 1106.319 L 505.394 1106.319 L 505.394 1129.6 L 501.47 1129.6 L 501.47 1111.983 L 488.625 1129.6 Z M 495.181 1103.687 Q 491.97 1103.687 490.32 1102.149 Q 488.669 1100.61 488.669 1098.335 L 491.435 1098.335 Q 491.435 1099.584 492.304 1100.409 Q 493.174 1101.234 495.181 1101.234 Q 497.143 1101.234 497.946 1100.454 Q 498.749 1099.673 498.927 1098.335 L 501.693 1098.335 Q 501.693 1100.61 500.042 1102.149 Q 498.392 1103.687 495.181 1103.687 Z" style="fill: rgb(255, 255, 255); white-space: pre;"/>
</svg>