<?xml version="1.0" encoding="utf-8"?>
<svg width="1920" height="547" viewBox="0 0 1920 547" xmlns="http://www.w3.org/2000/svg" xmlns:bx="https://boxy-svg.com">
  <defs>
    <clipPath id="1cnyg0twda">
      <path d="M1920 0v1080H0V0h1920z"/>
    </clipPath>
    <clipPath id="ehxb1ive8b">
      <path d="M725.409 42.67a97.91 97.91 0 0 0-73.28-32.9H4.669a4.89 4.89 0 0 1 0-9.77h647.45a107.69 107.69 0 0 1 80.6 36.19 4.89 4.89 0 0 1-3.43 8.125l-.226.005-.256-.007a4.89 4.89 0 0 1-3.398-1.643z"/>
    </clipPath>
    <clipPath id="d961bsnjcc">
      <path d="M1401.1 2.381a4.89 4.89 0 0 1-4.418 7.394H79.882a98.18 98.18 0 0 0-71.43 30.88 4.89 4.89 0 0 1-3.57 1.57 4.88 4.88 0 0 1-4.48-2.94 4.899 4.899 0 0 1 .92-5.28 108 108 0 0 1 78.56-34h1316.8a4.89 4.89 0 0 1 4.419 2.376z"/>
    </clipPath>
    <clipPath id="2s0f0tvysd">
      <path d="M148.39 0a4.89 4.89 0 0 1 0 9.77h-69.1A96.58 96.58 0 0 0 8.46 40.84a4.86 4.86 0 0 1-3.58 1.58 4.89 4.89 0 0 1-3.59-8.2A106.35 106.35 0 0 1 79.29 0h69.1z"/>
    </clipPath>
    <clipPath id="x1u5xqgr1f">
      <path d="M1434.47 1.321a4.89 4.89 0 0 1 .371 6.75 108 108 0 0 1-78.57 33.97H5.111a4.89 4.89 0 1 1 0-9.77h1351.16a98.2 98.2 0 0 0 71.44-30.88 4.89 4.89 0 0 1 6.76-.07z"/>
    </clipPath>
    <clipPath id="rcw4g6k8lac">
      <path d="M18.19 0c10.046 0 18.19 8.144 18.19 18.19 0 10.046-8.144 18.19-18.19 18.19C8.144 36.38 0 28.236 0 18.19 0 8.144 8.144 0 18.19 0z"/>
    </clipPath>
    <style bx:fonts="Raleway">@import url(https://fonts.googleapis.com/css2?family=Raleway%3Aital%2Cwght%400%2C100%3B0%2C200%3B0%2C300%3B0%2C400%3B0%2C500%3B0%2C600%3B0%2C700%3B0%2C800%3B0%2C900%3B1%2C100%3B1%2C200%3B1%2C300%3B1%2C400%3B1%2C500%3B1%2C600%3B1%2C700%3B1%2C800%3B1%2C900&amp;display=swap);</style>
    <clipPath id="clip-1">
      <path d="M18.19 0c10.046 0 18.19 8.144 18.19 18.19 0 10.046-8.144 18.19-18.19 18.19C8.144 36.38 0 28.236 0 18.19 0 8.144 8.144 0 18.19 0z"/>
    </clipPath>
  </defs>
  <g clip-path="url(#1cnyg0twda)" transform="matrix(1, 0, 0, 1, -156.542969, -212.628754)">
    <g clip-path="url(#ehxb1ive8b)" transform="matrix(1.066671, 0, 0, -0.94719, 774.155945, 469.544525)" style="">
      <path d="M0 0h733.946v44.32H0V0z" style="fill: rgb(255, 234, 0);"/>
    </g>
    <g clip-path="url(#d961bsnjcc)" transform="matrix(-0.898337, 0, 0, 0.972336, 1554.915405, 299.698181)" style="">
      <path fill="#55FF97" d="M.002 0h1343.88v42.225H.002V0z"/>
    </g>
    <g clip-path="url(#2s0f0tvysd)" transform="matrix(1, 0, 0, 1, 627.359375, 460.528839)">
      <path d="M0 0h153.06v42.42H0V0z" style="fill: rgb(255, 234, 0);"/>
    </g>
    <g clip-path="url(#x1u5xqgr1f)" transform="matrix(-0.92998, 0, 0, 1, 1961.688721, 582.783997)" style="">
      <path d="M57.221 0h1378.796v42.046H57.221V0z" style="fill: rgb(255, 234, 0);"/>
    </g>
    <g clip-path="url(#rcw4g6k8lac)" transform="matrix(1, 0, 0, 1, 588.134827, 522.384521)">
      <path d="M0 0h36.38v36.38H0V0z" style="fill: rgb(255, 234, 0);"/>
    </g>
    <g clip-path="url(#rcw4g6k8lac)" transform="matrix(1, 0, 0, 1, 1308.134766, 446.384521)">
      <path d="M0 0h36.38v36.38H0V0z" style="fill: rgb(255, 234, 0);"/>
    </g>
    <g clip-path="url(#rcw4g6k8lac)" transform="matrix(1, 0, 0, 1, 951.134766, 446.384521)">
      <path d="M0 0h36.38v36.38H0V0z" style="fill: rgb(255, 234, 0);"/>
    </g>
    <g clip-path="url(#rcw4g6k8lac)" transform="matrix(1, 0, 0, 1, 951.134766, 601.384521)">
      <path d="M0 0h36.38v36.38H0V0z" style="fill: rgb(255, 234, 0);"/>
    </g>
    <g clip-path="url(#rcw4g6k8lac)" transform="matrix(1, 0, 0, 1, 1308.134766, 601.384521)">
      <path d="M0 0h36.38v36.38H0V0z" style="fill: rgb(255, 234, 0);"/>
    </g>
    <g clip-path="url(#rcw4g6k8lac)" transform="matrix(1, 0, 0, 1, 1554.134766, 601.384521)">
      <path d="M0 0h36.38v36.38H0V0z" style="fill: rgb(255, 234, 0);"/>
    </g>
    <g clip-path="url(#rcw4g6k8lac)" transform="matrix(1, 0, 0, 1, 1308.134766, 285.384521)">
      <path fill="#55FF97" d="M0 0h36.38v36.38H0V0z"/>
    </g>
    <g clip-path="url(#rcw4g6k8lac)" transform="matrix(1, 0, 0, 1, 588.134827, 285.384521)">
      <path fill="#55FF97" d="M0 0h36.38v36.38H0V0z"/>
    </g>
    <g clip-path="url(#rcw4g6k8lac)" transform="matrix(1, 0, 0, 1, 951.134766, 285.384521)">
      <path fill="#55FF97" d="M0 0h36.38v36.38H0V0z"/>
    </g>
    <text style="fill: rgb(255, 255, 255); font-family: Raleway; font-size: 38px; white-space: pre;" x="1238.477" y="273.017">Вересень</text>
    <text style="fill: rgb(255, 255, 255); font-family: Raleway; font-size: 38px; white-space: pre;" x="533.496" y="273.017">Червень</text>
    <text style="white-space: pre; fill: rgb(51, 51, 51); font-family: Arial, sans-serif; font-size: 38px;" x="761.234" y="341.916"> </text>
    <text style="fill: rgb(255, 255, 255); font-family: Raleway; font-size: 38px; white-space: pre;" x="1238.435" y="432.017">Листопад</text>
    <text style="fill: rgb(255, 255, 255); font-family: Raleway; font-size: 38px; white-space: pre;" x="900.041" y="273.017">Серпень</text>
    <text style="fill: rgb(255, 255, 255); font-family: Raleway; font-size: 38px; white-space: pre;" x="1615.002" y="396.147">Жовтень</text>
    <text style="fill: rgb(255, 255, 255); font-family: Raleway; font-size: 38px; white-space: pre;" x="450.819" y="557.036">Січень</text>
    <text style="fill: rgb(255, 255, 255); font-family: Raleway; font-size: 38px; white-space: pre;" x="900.035" y="432.017">Грудень</text>
    <text style="fill: rgb(255, 255, 255); font-family: Raleway; font-size: 38px; white-space: pre;" x="900.035" y="586.017">Лютий</text>
    <text style="fill: rgb(255, 255, 255); font-family: Raleway; font-size: 38px; white-space: pre;" x="1238.435" y="586.017">Березень</text>
    <text style="fill: rgb(255, 255, 255); font-family: Raleway; font-size: 38px; white-space: pre;" x="1507.947" y="586.017">Квітень</text>
    <g clip-path="url(#clip-1)" transform="matrix(1, 0, 0, 1, 1561.266479, 365.437134)">
      <path fill="#55FF97" d="M0 0h36.38v36.38H0V0z"/>
    </g>
  </g>
  <text style="fill: rgb(255, 255, 255); font-family: Raleway; font-size: 24px; white-space: pre;" x="369.896" y="137.084">Запуск ITinder</text>
  <text style="fill: rgb(255, 255, 255); font-family: Raleway; font-size: 24px; white-space: pre;" x="691.039" y="135.747">Створення ITpartners</text>
  <text style="fill: rgb(255, 255, 255); font-family: Raleway; font-size: 24px; white-space: pre;" x="1101.516" y="136.638">4000 юзерів</text>
  <text style="fill: rgb(255, 255, 255); font-family: Raleway; font-size: 24px; white-space: pre;" x="1248.937" y="179.654">5000 юзерів</text>
  <text style="fill: rgb(255, 255, 255); font-family: Raleway; font-size: 24px; white-space: pre;" x="1077.772" y="300.604">Запуск ITmentor</text>
  <text style="fill: rgb(255, 255, 255); font-family: Raleway; font-size: 24px; white-space: pre;" x="734.536" y="297.93">Запуск ITeach</text>
</svg>