<svg xmlns="http://www.w3.org/2000/svg" xmlns:xlink="http://www.w3.org/1999/xlink" width="500" zoomAndPan="magnify" viewBox="0 0 375 374.999991" height="500" preserveAspectRatio="xMidYMid meet" version="1.0"><defs><clipPath id="id1"><path d="M 45.332031 56.464844 L 319.832031 56.464844 L 319.832031 330.964844 L 45.332031 330.964844 Z M 45.332031 56.464844 " clip-rule="nonzero"/></clipPath></defs><g clip-path="url(#id1)"><path fill="#40b3e0" d="M 182.582031 56.464844 C 106.777344 56.464844 45.332031 117.914062 45.332031 193.714844 C 45.332031 269.515625 106.777344 330.964844 182.582031 330.964844 C 258.378906 330.964844 319.832031 269.515625 319.832031 193.714844 C 319.832031 117.914062 258.378906 56.464844 182.582031 56.464844 Z M 182.582031 56.464844 " fill-opacity="1" fill-rule="nonzero"/></g><path fill="#ffffff" d="M 249.359375 135.417969 L 224.847656 259.015625 C 224.847656 259.015625 221.417969 267.585938 211.992188 263.46875 L 155.421875 220.105469 L 134.851562 210.15625 L 100.226562 198.5 C 100.226562 198.5 94.910156 196.613281 94.394531 192.503906 C 93.882812 188.386719 100.398438 186.15625 100.398438 186.15625 L 238.054688 132.160156 C 238.042969 132.160156 249.355469 127.191406 249.355469 135.417969 " fill-opacity="1" fill-rule="nonzero"/><path fill="#d2e5f1" d="M 151.074219 257.621094 C 151.074219 257.621094 149.425781 257.472656 147.367188 250.953125 C 145.308594 244.445312 134.851562 210.152344 134.851562 210.152344 L 217.996094 157.359375 C 217.996094 157.359375 222.789062 154.445312 222.617188 157.359375 C 222.617188 157.359375 223.476562 157.875 220.902344 160.273438 C 218.339844 162.671875 155.589844 219.074219 155.589844 219.074219 " fill-opacity="1" fill-rule="nonzero"/><path fill="#b5cfe4" d="M 177.113281 236.734375 L 154.734375 257.128906 C 154.734375 257.128906 152.984375 258.457031 151.074219 257.621094 L 155.355469 219.730469 " fill-opacity="1" fill-rule="nonzero"/></svg>